<?xml version="1.0" standalone="no"?>
<!DOCTYPE svg PUBLIC "-//W3C//DTD SVG 20010904//EN"
 "http://www.w3.org/TR/2001/REC-SVG-20010904/DTD/svg10.dtd">
<svg version="1.0" xmlns="http://www.w3.org/2000/svg"
 width="826.000000pt" height="826.000000pt" viewBox="0 0 826.000000 826.000000"
 preserveAspectRatio="xMidYMid meet">
<metadata>
Created by potrace 1.14, written by Peter Selinger 2001-2017
</metadata>
<g transform="translate(0.000000,826.000000) scale(0.100000,-0.100000)"
fill="#000000" stroke="none">
<path d="M4033 6957 c1 -6 -7 -11 -18 -12 -11 -1 -30 -2 -42 -3 -13 -1 -23 -9
-23 -17 0 -12 -5 -13 -17 -7 -24 12 -113 24 -112 14 3 -18 -2 -32 -12 -32 -5
0 -8 4 -4 9 7 13 -21 19 -75 16 -27 -1 -60 6 -82 17 -50 24 -71 23 -30 -2 17
-11 32 -25 32 -31 0 -7 -7 -5 -19 5 -12 11 -28 15 -47 11 -23 -4 -25 -3 -9 4
11 5 14 10 7 10 -7 1 -10 6 -7 11 7 12 -43 3 -60 -11 -6 -4 -31 -7 -56 -6 -34
1 -55 -4 -82 -23 -20 -14 -37 -29 -37 -33 0 -5 5 -5 10 -2 6 3 10 2 10 -4 0
-5 -10 -11 -22 -13 -13 -2 -22 -9 -20 -16 1 -8 -8 -11 -32 -8 -30 4 -33 2 -29
-17 4 -21 4 -21 -11 -3 -8 10 -20 15 -26 11 -6 -4 -22 1 -37 10 -24 16 -28 16
-64 -1 -44 -20 -49 -31 -16 -44 15 -6 17 -9 6 -9 -9 -1 -22 6 -30 15 -11 14
-14 14 -23 2 -6 -8 -21 -20 -34 -27 -12 -7 -20 -16 -17 -21 3 -5 -18 -20 -48
-34 -34 -15 -62 -37 -77 -60 -14 -20 -29 -37 -35 -37 -5 -1 -14 -3 -20 -4 -5
-2 -19 -4 -30 -5 -11 -1 -15 -4 -7 -7 20 -8 14 -20 -18 -33 -16 -7 -30 -19
-30 -26 0 -8 -7 -14 -16 -14 -11 0 -14 6 -9 21 5 15 4 19 -4 15 -6 -4 -11 -13
-11 -20 0 -18 -31 -79 -44 -88 -8 -5 -7 -8 1 -8 7 0 17 8 22 18 9 15 10 15 11
-5 0 -13 -5 -23 -11 -23 -6 0 -8 -7 -5 -16 4 -10 2 -13 -6 -8 -7 5 -9 -1 -6
-20 6 -30 3 -32 -18 -11 -13 13 -18 13 -40 -1 -13 -9 -24 -23 -24 -30 0 -8 -4
-14 -10 -14 -5 0 -11 -10 -11 -22 -1 -17 -2 -19 -6 -5 -5 21 -22 22 -29 2 -9
-22 -27 -18 -21 5 3 11 3 20 1 20 -8 0 -44 -40 -44 -50 0 -5 -6 -13 -14 -17
-7 -4 -23 -24 -35 -43 -11 -19 -21 -30 -21 -25 -1 14 -40 -87 -40 -102 0 -7 8
-13 18 -13 14 0 15 2 2 10 -10 6 -11 10 -2 10 6 0 12 8 12 18 1 16 1 16 11 -1
14 -23 2 -58 -17 -50 -18 7 -18 -5 0 -49 8 -19 17 -52 19 -75 3 -22 9 -49 15
-59 5 -11 20 -55 32 -99 12 -44 26 -85 32 -92 6 -7 6 -32 -1 -67 -7 -38 -7
-72 1 -113 6 -32 12 -71 13 -88 2 -16 10 -46 19 -67 8 -20 20 -57 26 -82 6
-26 37 -100 69 -164 67 -133 91 -185 91 -201 0 -6 5 -11 10 -11 6 0 10 -8 10
-17 0 -10 9 -29 20 -43 11 -14 20 -30 20 -35 0 -9 37 -58 100 -132 11 -12 32
-42 47 -65 15 -24 30 -45 34 -48 9 -8 79 -157 79 -169 0 -6 5 -11 10 -11 6 0
10 -9 10 -20 0 -11 3 -20 8 -20 4 0 18 -27 31 -59 21 -53 25 -58 42 -48 15 9
16 13 4 19 -20 12 7 74 30 70 10 -2 14 1 10 7 -3 6 2 11 12 12 16 0 16 1 -2 9
-18 8 -18 9 5 10 14 1 20 4 14 6 -7 3 -10 14 -7 24 3 11 0 20 -6 20 -6 0 -11
5 -11 11 0 8 6 7 17 -2 9 -8 18 -13 20 -11 1 1 4 2 6 1 1 0 12 -2 25 -3 21 -3
21 -2 5 16 -9 10 -25 18 -35 18 -11 0 -16 5 -13 10 4 6 11 8 16 5 25 -16 49
51 31 89 -13 28 -32 138 -36 205 -3 43 -9 58 -27 72 -13 10 -19 19 -12 19 6 0
15 -4 18 -10 10 -16 28 -12 21 5 -3 9 0 15 9 15 9 0 12 6 9 15 -4 8 -1 15 5
15 8 0 6 11 -6 30 -9 17 -21 30 -25 30 -4 0 -8 4 -8 9 0 4 12 6 28 3 l27 -5
-24 20 c-19 15 -20 20 -8 20 10 0 17 -4 17 -9 0 -4 5 -8 11 -8 6 0 10 15 9 33
-3 53 -1 64 9 49 12 -19 23 58 15 107 -6 36 -5 39 14 34 15 -3 24 2 34 20 45
84 154 119 243 78 46 -21 118 -98 111 -118 -3 -8 -2 -12 3 -9 13 8 13 -119 0
-148 -18 -39 -32 -32 -24 13 4 23 0 62 -9 97 -20 78 -78 134 -138 134 -76 0
-131 -40 -164 -119 -19 -46 -11 -51 10 -6 10 21 24 35 35 35 10 0 24 6 30 14
17 20 79 30 97 15 8 -6 14 -29 14 -54 0 -24 3 -50 6 -59 7 -18 39 -22 49 -6 7
12 45 14 45 3 -1 -16 -26 -39 -56 -52 -73 -29 -118 -124 -94 -198 27 -82 58
-113 109 -113 33 1 34 2 18 15 -29 22 -17 49 27 60 35 8 40 7 60 -18 40 -50
27 -85 -21 -52 -18 13 -22 13 -26 1 -4 -9 7 -22 28 -35 26 -15 35 -17 39 -6 2
7 17 19 33 27 36 18 35 61 -2 95 -20 20 -25 33 -25 76 0 29 -4 58 -9 66 -6 10
-3 27 9 51 17 34 33 97 32 132 0 11 6 15 19 13 28 -6 49 4 49 22 0 12 3 13 14
4 11 -9 15 -9 19 1 4 10 7 10 15 -1 5 -7 14 -11 20 -7 6 3 17 -1 26 -9 13 -14
16 -13 31 7 13 20 17 21 26 8 8 -12 10 -9 6 12 -2 15 0 25 4 22 5 -3 9 0 9 5
0 6 6 11 14 11 8 0 16 6 19 13 2 6 7 10 10 7 4 -3 0 -18 -8 -33 -8 -15 -10
-27 -5 -27 4 0 13 14 19 31 6 17 15 28 21 24 13 -8 13 11 1 34 -11 20 -4 61
10 61 5 0 9 -12 10 -27 0 -25 1 -26 9 -8 12 29 12 118 0 110 -10 -6 -8 41 6
113 6 30 7 31 21 15 8 -10 12 -13 9 -7 -3 6 8 26 24 44 17 19 30 37 30 42 0 4
19 16 43 27 23 11 56 29 72 41 17 11 36 20 43 20 15 0 83 30 92 40 17 19 89
69 110 75 32 10 100 15 123 9 27 -8 47 -57 47 -116 0 -53 7 -72 25 -74 31 -2
75 -18 75 -26 0 -20 63 29 76 59 16 37 18 55 4 33 -6 -9 -10 -10 -10 -3 0 19
20 67 33 76 8 6 5 7 -6 3 -15 -5 -17 -2 -12 14 4 13 -1 24 -20 36 -19 13 -23
20 -14 30 6 7 8 18 4 24 -5 8 -11 6 -19 -6 -12 -15 -13 -15 -19 0 -4 10 -18
16 -37 16 -27 0 -35 -8 -31 -32 0 -5 -6 -8 -14 -8 -8 0 -15 -8 -15 -17 0 -10
-9 2 -20 26 -22 48 -25 71 -9 71 5 0 8 4 5 9 -7 11 17 21 50 21 13 0 24 6 24
13 0 9 2 9 8 -1 5 -7 15 -11 23 -9 8 2 11 2 7 0 -19 -11 -4 -18 34 -17 67 3
85 -5 103 -42 19 -40 28 -44 19 -9 -3 14 -2 25 2 24 23 -4 35 5 71 53 54 74
87 138 64 124 -5 -3 0 11 10 31 11 21 19 46 18 58 -1 13 -4 9 -10 -12 -5 -18
-14 -35 -20 -39 -8 -4 -7 0 0 15 9 16 9 21 -1 21 -9 0 -10 3 -2 8 20 13 25 48
10 61 -8 7 -14 18 -12 24 1 7 1 9 -1 5 -8 -14 -41 -8 -47 8 -9 23 3 32 15 14
8 -11 12 -12 16 -2 2 6 11 12 19 12 16 0 19 17 3 22 -14 5 0 38 16 38 7 0 15
9 18 20 7 28 -38 80 -69 80 -16 0 -24 6 -24 18 0 14 2 15 10 2 6 -10 10 -11
10 -3 0 7 -9 18 -20 25 -21 14 -29 34 -7 22 6 -4 5 1 -4 12 -9 10 -14 25 -11
33 2 8 0 11 -6 7 -5 -3 -14 7 -20 22 -5 15 -22 42 -38 59 -16 16 -37 42 -47
57 -28 42 -177 98 -177 67 0 -7 -11 0 -25 15 -14 15 -25 32 -25 38 0 7 -21 18
-47 25 -27 8 -55 20 -63 27 -9 7 -24 13 -35 12 -11 -1 -31 2 -45 7 -24 7 -24
7 -8 -17 16 -24 16 -25 -8 -20 -18 3 -25 10 -23 26 2 25 -10 56 -22 56 -4 0
-6 -7 -2 -16 5 -14 2 -14 -22 2 -38 25 -61 27 -95 9 -17 -9 -30 -12 -30 -8 0
5 -4 2 -8 -4 -6 -10 -17 -10 -42 -3 -40 11 -100 3 -100 -14 0 -7 -3 -8 -8 -1
-11 16 -92 45 -89 32z m-178 -47 c3 -5 1 -10 -4 -10 -6 0 -11 5 -11 10 0 6 2
10 4 10 3 0 8 -4 11 -10z m805 -82 c0 -14 -17 -8 -35 12 -17 19 -17 19 9 7 14
-7 26 -15 26 -19z m-1213 -4 c-3 -3 -12 -4 -19 -1 -8 3 -5 6 6 6 11 1 17 -2
13 -5z m77 -20 c3 -8 2 -12 -4 -9 -6 3 -10 10 -10 16 0 14 7 11 14 -7z m-307
-16 c-3 -8 -6 -5 -6 6 -1 11 2 17 5 13 3 -3 4 -12 1 -19z m-449 -296 c-22 -27
-24 -28 -36 -10 -7 10 -18 16 -23 13 -5 -4 -9 -1 -9 4 0 17 21 13 35 -6 11
-15 13 -15 24 5 6 12 16 22 22 22 6 0 0 -13 -13 -28z m336 9 c-10 -10 -21 -16
-24 -14 -3 3 4 11 14 19 28 20 33 17 10 -5z m-374 -53 c0 -5 -7 -8 -15 -8 -15
0 -20 21 -8 33 7 7 23 -11 23 -25z m-10 -78 c0 -5 -5 -10 -11 -10 -5 0 -7 5
-4 10 3 6 8 10 11 10 2 0 4 -4 4 -10z m-305 -220 c3 -5 1 -10 -4 -10 -6 0 -11
5 -11 10 0 6 2 10 4 10 3 0 8 -4 11 -10z m2440 -170 c3 -5 2 -10 -4 -10 -5 0
-13 5 -16 10 -3 6 -2 10 4 10 5 0 13 -4 16 -10z m-2248 -292 c-3 -8 -6 -5 -6
6 -1 11 2 17 5 13 3 -3 4 -12 1 -19z m-80 -80 c-3 -7 -5 -2 -5 12 0 14 2 19 5
13 2 -7 2 -19 0 -25z m60 -20 c-3 -8 -6 -5 -6 6 -1 11 2 17 5 13 3 -3 4 -12 1
-19z m77 -233 c-4 -8 -8 -15 -10 -15 -2 0 -4 7 -4 15 0 8 4 15 10 15 5 0 7 -7
4 -15z m1036 -105 c0 -5 -4 -10 -9 -10 -6 0 -13 5 -16 10 -3 6 1 10 9 10 9 0
16 -4 16 -10z m-496 -102 c20 -38 32 -68 26 -68 -5 0 -10 4 -10 9 0 5 -6 16
-13 23 -12 12 -47 90 -47 105 0 11 6 1 44 -69z m196 58 c0 -3 -4 -8 -10 -11
-5 -3 -10 -1 -10 4 0 6 5 11 10 11 6 0 10 -2 10 -4z m-633 -228 c-3 -8 -6 -5
-6 6 -1 11 2 17 5 13 3 -3 4 -12 1 -19z m863 -35 c-11 -17 -11 -17 -6 0 3 10
7 26 7 35 1 15 2 15 6 0 2 -10 -1 -25 -7 -35z"/>
<path d="M3180 6860 c0 -5 9 -14 20 -20 11 -6 20 -7 20 -3 0 5 -9 14 -20 21
-11 7 -20 8 -20 2z"/>
<path d="M4690 6846 c0 -2 8 -10 18 -17 15 -13 16 -12 3 4 -13 16 -21 21 -21
13z"/>
<path d="M2758 6583 c7 -3 16 -2 19 1 4 3 -2 6 -13 5 -11 0 -14 -3 -6 -6z"/>
<path d="M5140 6375 c0 -8 4 -15 10 -15 5 0 7 7 4 15 -4 8 -8 15 -10 15 -2 0
-4 -7 -4 -15z"/>
<path d="M4755 5930 c3 -5 12 -10 20 -10 8 0 17 5 20 10 4 6 -5 10 -20 10 -15
0 -24 -4 -20 -10z"/>
<path d="M4885 5859 c-4 -6 -5 -12 -2 -15 2 -3 7 2 10 11 7 17 1 20 -8 4z"/>
<path d="M4841 5493 c-13 -9 -39 -17 -59 -19 -45 -3 -68 -24 -26 -24 40 0 11
-19 -31 -20 l-30 -1 25 -14 25 -14 -38 -1 -37 0 16 -25 16 -25 -48 5 c-27 2
-40 2 -29 -1 30 -9 42 -24 20 -24 -41 -1 -98 -73 -93 -117 4 -30 41 -61 80
-66 15 -1 37 -13 48 -25 34 -36 126 -102 142 -102 9 0 21 -7 28 -15 14 -17 60
-21 60 -5 0 6 11 10 25 10 24 0 65 31 65 49 0 5 12 12 26 15 21 6 25 12 21 31
-2 14 2 30 9 36 8 6 12 14 9 18 -2 4 9 24 26 44 26 31 31 47 35 109 2 41 1 65
-4 55 -6 -15 -10 -12 -21 18 -7 19 -17 33 -22 30 -5 -4 -12 2 -16 12 -17 45
-73 76 -142 80 -41 2 -64 -2 -80 -14z m9 -282 c0 -5 -7 -12 -16 -15 -8 -3 -12
-10 -9 -16 9 -15 -6 -12 -45 10 -30 16 -32 19 -12 20 12 0 22 -4 22 -10 0 -5
7 -10 16 -10 10 0 14 6 10 15 -4 10 1 15 14 15 11 0 20 -4 20 -9z"/>
<path d="M3270 5169 c0 -5 5 -7 10 -4 6 3 10 8 10 11 0 2 -4 4 -10 4 -5 0 -10
-5 -10 -11z"/>
<path d="M3355 4930 c20 -93 111 -222 189 -267 42 -25 34 -11 -37 61 -52 53
-86 99 -116 158 -31 58 -41 73 -36 48z"/>
<path d="M3779 4884 c-5 -15 -7 -29 -4 -32 2 -3 0 -11 -6 -19 -9 -10 -7 -13 9
-13 25 0 42 -27 42 -68 0 -37 -49 -82 -88 -82 -15 0 -38 -9 -52 -20 l-25 -19
28 -10 c38 -15 53 -14 88 4 28 15 30 15 39 -10 12 -31 13 -96 2 -110 -7 -10
-37 -26 -77 -41 -35 -13 10 -18 47 -5 26 9 36 8 63 -9 18 -11 41 -20 52 -20
17 0 20 5 17 31 -2 17 -12 43 -22 57 -10 15 -28 48 -40 74 -13 26 -28 50 -33
54 -6 3 -4 16 7 31 12 20 15 37 9 72 -3 25 -8 67 -9 92 -4 72 -27 93 -47 43z"/>
<path d="M4949 4838 c-1 -2 -3 -16 -5 -33 -10 -94 -16 -112 -50 -149 -33 -36
-36 -37 -53 -22 -22 20 -51 21 -51 1 0 -9 -9 -15 -25 -15 -16 0 -25 -6 -25
-15 0 -8 -7 -15 -16 -15 -8 0 -13 -4 -10 -9 12 -19 -7 -39 -43 -45 -49 -7 -97
-32 -79 -39 7 -3 4 -5 -7 -4 -34 3 -115 -14 -115 -24 0 -16 -18 -10 -23 9 -3
10 -5 5 -6 -12 -1 -32 -16 -26 -16 6 0 12 -7 22 -18 24 -9 1 -15 -2 -11 -7 3
-5 1 -9 -4 -9 -5 0 -12 -9 -15 -21 -6 -23 -27 -17 -27 7 0 8 5 12 10 9 6 -3
10 -1 10 4 0 6 -9 11 -20 11 -13 0 -18 -5 -14 -15 4 -9 0 -15 -10 -15 -9 0
-16 -6 -16 -12 0 -10 -3 -9 -9 1 -10 16 -18 4 -16 -26 1 -12 -4 -24 -11 -27
-8 -3 -14 -18 -14 -33 0 -21 -3 -24 -9 -14 -8 12 -12 12 -25 2 -11 -9 -13 -19
-5 -37 12 -33 12 -34 -7 -34 -10 0 -14 5 -10 16 3 8 2 12 -4 9 -6 -3 -10 1
-10 9 0 9 -4 16 -8 16 -5 0 -7 -15 -5 -32 1 -18 0 -52 -4 -76 -4 -34 -9 -42
-21 -37 -13 5 -12 2 3 -15 10 -11 16 -20 14 -21 -35 -7 -53 -3 -69 19 -17 20
-22 22 -35 12 -10 -8 -13 -21 -9 -33 5 -16 3 -19 -10 -14 -9 4 -16 3 -16 -2 0
-4 -12 -13 -26 -20 -19 -8 -23 -15 -16 -24 6 -7 10 -43 10 -80 -1 -37 2 -70 5
-74 4 -3 7 5 7 18 0 13 5 31 10 39 7 11 10 6 11 -22 2 -47 2 -50 12 -65 6 -9
2 -13 -13 -13 -12 0 -18 -4 -15 -10 3 -5 -1 -10 -9 -10 -9 0 -16 -4 -16 -9 0
-4 -15 -7 -32 -4 -75 8 -83 8 -81 -4 2 -7 -5 -13 -15 -13 -25 0 -55 -23 -59
-46 -5 -32 6 -64 23 -64 14 0 14 -3 4 -15 -10 -13 -9 -15 11 -16 l24 0 -22 -9
c-30 -12 -29 -24 4 -55 27 -25 83 -35 83 -15 0 6 -12 10 -26 10 -35 0 -27 20
19 46 21 11 34 24 30 29 -5 4 -2 5 6 0 7 -4 16 -3 20 4 4 6 34 16 67 21 88 15
142 -7 190 -77 29 -43 37 -64 39 -106 1 -30 5 -63 9 -74 9 -27 -40 -76 -101
-103 -24 -11 -43 -24 -43 -30 0 -6 -22 -39 -48 -73 -26 -34 -54 -80 -61 -102
-13 -41 -30 -66 -68 -98 -21 -18 -21 -18 -16 2 4 17 1 21 -21 21 -28 0 -33 -9
-14 -28 9 -9 6 -16 -12 -32 -13 -11 -29 -20 -36 -20 -18 0 -27 -57 -28 -170
-1 -105 13 -166 48 -207 l23 -27 29 20 c16 11 57 29 91 39 52 15 67 16 92 6
16 -7 38 -10 48 -7 10 3 32 2 50 -3 27 -8 30 -7 26 10 -3 10 -11 23 -19 29
-10 9 -10 17 -2 35 11 25 41 24 31 -1 -3 -8 0 -21 7 -29 9 -10 9 -15 1 -15 -6
0 -11 -4 -11 -10 0 -5 7 -10 16 -10 9 0 32 -16 50 -36 41 -43 45 -91 12 -144
-12 -19 -34 -60 -49 -90 -16 -30 -42 -73 -58 -95 -17 -22 -39 -56 -50 -75 -10
-19 -39 -53 -63 -75 -55 -50 -61 -60 -38 -62 13 -1 17 3 13 13 -3 8 -1 14 5
14 6 0 12 -5 14 -12 5 -14 28 -2 28 15 0 7 -4 6 -10 -3 -8 -13 -10 -12 -10 2
0 10 9 23 20 30 11 7 20 18 20 25 0 7 7 13 15 13 9 0 12 6 9 15 -4 11 -2 13 9
9 11 -4 14 0 11 13 -5 21 31 67 45 59 5 -3 7 4 5 16 -2 13 -2 17 2 11 8 -18
25 -16 18 2 -3 8 1 22 10 31 9 8 14 20 11 25 -4 5 1 9 11 9 14 0 15 2 3 16
-12 15 -11 16 11 11 14 -4 19 -4 13 -1 -7 3 -13 13 -13 21 0 12 3 13 14 4 12
-10 13 -9 9 8 -3 12 4 33 17 51 14 20 20 40 17 56 -3 18 -1 24 9 20 8 -3 14
-1 14 3 0 5 -5 11 -12 13 -15 5 -19 38 -5 38 8 0 7 4 -2 9 -10 6 -12 24 -9 65
3 31 1 56 -4 56 -5 0 -6 -4 -3 -10 3 -5 2 -10 -3 -10 -12 0 -15 39 -12 149 2
47 -2 66 -12 72 -13 7 -14 17 -8 64 3 31 31 -68 34 -124 2 -36 9 -86 16 -111
7 -25 12 -59 11 -76 -1 -17 3 -42 8 -55 10 -24 10 -23 11 6 1 17 4 24 7 17 2
-6 9 -10 13 -7 16 10 50 -34 50 -62 0 -32 -45 -133 -58 -133 -6 0 -13 -11 -16
-25 -4 -14 -11 -25 -16 -25 -13 0 -13 7 1 32 7 13 7 18 1 14 -6 -4 -21 -27
-33 -51 -12 -25 -26 -45 -31 -45 -4 0 -8 -6 -8 -14 0 -8 -5 -16 -12 -18 -7 -3
-8 -10 -4 -17 6 -9 15 -1 32 26 13 21 24 33 24 26 0 -6 -5 -15 -11 -19 -6 -3
-9 -18 -6 -32 6 -30 -1 -52 -16 -52 -7 0 -7 4 1 12 14 14 16 28 3 28 -12 0
-21 -39 -10 -46 14 -8 -29 -64 -49 -64 -15 0 -15 -2 -2 -10 12 -8 9 -10 -13
-10 l-29 0 26 31 c14 17 29 41 32 55 3 13 10 24 15 24 5 0 9 5 9 10 0 23 -18
7 -35 -30 -10 -22 -38 -58 -62 -80 -23 -22 -43 -42 -43 -44 0 -2 7 -7 16 -10
8 -3 12 -2 9 4 -3 6 1 10 9 10 9 0 16 -5 16 -12 0 -6 3 -8 6 -5 4 4 1 13 -5
21 -8 10 -9 16 -1 21 5 3 10 1 10 -5 0 -6 4 -9 9 -6 11 7 8 -22 -7 -56 -13
-31 -48 -44 -90 -34 -15 4 -57 7 -94 7 -38 0 -68 5 -68 10 0 5 -5 9 -11 9 -5
0 -8 -4 -5 -9 4 -5 -7 -4 -24 2 -18 7 -28 17 -26 24 3 7 1 13 -4 13 -6 0 -10
-4 -10 -10 0 -5 -7 -7 -15 -4 -11 5 -13 10 -5 19 8 10 4 15 -19 20 -17 3 -36
3 -42 -1 -9 -5 -10 -2 -6 9 11 29 -22 50 -67 44 -23 -3 -35 -2 -28 0 9 3 -2
14 -28 29 -51 29 -63 30 -31 4 31 -26 17 -26 -16 0 -14 11 -20 20 -13 20 9 0
7 6 -5 20 -10 11 -21 17 -26 14 -5 -2 -19 11 -31 30 -13 20 -28 36 -35 36 -7
0 -25 12 -40 26 -15 14 -32 29 -38 32 -43 29 -338 359 -419 470 -46 62 -55 79
-36 67 10 -6 16 14 24 80 7 57 23 172 34 241 6 32 8 84 7 114 -8 149 -5 238 9
293 38 136 46 173 46 200 0 25 -3 27 -22 22 -13 -4 -36 -13 -52 -21 -16 -8
-34 -14 -40 -14 -6 0 -22 -10 -36 -23 -14 -13 -33 -26 -43 -30 -10 -4 -15 -11
-12 -17 3 -5 0 -7 -8 -4 -8 3 -52 -14 -98 -37 -48 -24 -78 -44 -69 -47 8 -3
16 0 18 7 2 6 11 11 20 11 14 0 14 -2 3 -9 -22 -14 -3 -32 27 -25 15 4 24 4
21 0 -10 -11 -69 -15 -69 -5 0 17 -29 9 -34 -9 -7 -20 -46 -25 -46 -6 0 7 8
10 20 7 14 -4 20 0 20 11 0 25 -18 19 -51 -16 -20 -23 -29 -28 -29 -16 0 9 5
19 10 21 6 3 5 4 -2 3 -7 -2 -13 -14 -13 -27 0 -18 5 -23 19 -21 11 2 16 -1
13 -10 -2 -7 -9 -12 -15 -11 -6 1 -7 -7 -4 -20 5 -18 7 -19 10 -4 5 23 19 22
27 -3 7 -21 25 -28 25 -10 0 6 -4 10 -10 10 -5 0 -10 5 -10 10 0 15 24 7 32
-10 5 -11 7 -9 7 8 1 12 -5 22 -11 22 -9 0 -8 4 2 10 23 15 28 12 24 -17 -2
-16 -1 -22 2 -15 3 6 11 9 16 6 6 -4 8 -2 4 4 -3 6 -2 13 4 17 6 3 10 -3 10
-15 0 -17 4 -21 18 -16 15 5 15 4 -2 -8 -13 -11 -16 -21 -11 -33 5 -10 7 -22
6 -27 -1 -5 5 -6 14 -3 8 4 15 2 15 -3 0 -6 -4 -10 -9 -10 -5 0 -11 -10 -14
-22 -2 -13 -8 -31 -12 -41 -6 -13 -4 -16 9 -11 9 3 16 1 16 -5 0 -6 -6 -11
-14 -11 -17 0 -25 -11 -31 -41 -3 -13 0 -19 8 -16 7 2 11 12 10 22 -1 11 2 14
8 8 13 -13 0 -43 -18 -43 -8 0 -11 -5 -8 -11 4 -6 -1 -17 -11 -25 -18 -14 -18
-14 1 -29 11 -9 25 -13 33 -10 7 3 10 0 7 -6 -4 -5 -16 -7 -28 -3 -12 4 -30 7
-39 6 -10 0 -18 3 -18 9 0 5 -4 9 -8 9 -5 0 -9 -19 -10 -42 -1 -24 2 -38 6
-31 10 16 62 28 62 14 0 -6 -3 -10 -7 -10 -22 4 -43 -2 -43 -12 0 -5 5 -7 10
-4 6 3 10 1 10 -5 0 -6 -10 -8 -26 -4 -18 5 -25 3 -20 -4 7 -12 -3 -42 -14
-42 -10 0 -7 36 5 64 6 13 4 21 -3 24 -7 2 -12 12 -12 23 0 10 -5 19 -11 19
-6 0 -9 -6 -6 -12 2 -7 -2 -17 -9 -23 -10 -7 -11 -15 -4 -25 8 -13 10 -12 10
3 0 21 16 23 24 2 3 -8 1 -15 -4 -15 -5 0 -8 -14 -8 -31 1 -17 -4 -34 -11 -39
-9 -5 -6 -9 8 -13 14 -3 19 -1 14 6 -4 7 1 6 10 -2 15 -12 17 -11 17 3 0 18 8
20 29 7 10 -6 11 -13 2 -29 -14 -26 -15 -54 -2 -33 6 9 11 10 15 2 4 -6 2 -11
-5 -11 -8 0 -6 -6 4 -18 10 -10 17 -22 17 -27 0 -5 -6 0 -14 10 -12 17 -13 16
-12 -13 1 -33 9 -41 22 -21 7 12 24 -6 24 -26 0 -5 -4 -3 -10 5 -5 8 -13 11
-17 6 -4 -4 0 -13 10 -20 9 -7 17 -19 17 -25 0 -8 -5 -7 -15 3 -15 14 -33 14
-76 1 -20 -7 -27 9 -8 21 7 4 2 11 -13 18 -16 9 -25 9 -30 2 -11 -16 -9 -26 5
-22 6 1 9 1 5 -1 -5 -3 -8 -12 -8 -21 0 -15 2 -15 10 -2 8 13 10 12 10 -2 0
-21 20 -24 38 -6 9 9 12 9 12 0 0 -7 -4 -12 -9 -12 -5 0 -8 -11 -7 -25 1 -31
16 -33 17 -2 0 21 1 21 9 2 8 -19 9 -19 9 3 1 13 5 20 11 17 6 -4 7 -12 3 -18
-4 -8 -1 -7 9 1 11 9 18 10 23 2 3 -5 1 -10 -5 -10 -6 0 -8 -4 -5 -10 3 -5 0
-7 -8 -4 -23 8 -47 -49 -26 -61 5 -4 2 -13 -6 -22 -19 -18 -14 -25 16 -27 31
-1 35 -22 5 -21 -13 0 -27 3 -31 7 -4 4 -12 5 -18 4 -7 -2 -9 -1 -4 1 4 3 5 9
1 14 -3 5 0 9 6 9 6 0 8 5 5 10 -4 6 -12 7 -18 4 -7 -4 -9 -4 -5 1 4 4 0 15
-9 24 -15 15 -15 16 1 19 13 3 16 10 12 25 -3 12 -6 29 -6 37 0 13 -1 13 -10
0 -8 -13 -10 -12 -10 3 0 9 -7 17 -16 17 -11 0 -14 -5 -10 -16 3 -9 6 -20 6
-25 0 -6 5 -7 10 -4 6 3 10 2 10 -3 0 -6 -7 -13 -16 -16 -8 -3 -13 -10 -10
-15 3 -5 -1 -11 -9 -15 -9 -3 -15 0 -15 9 0 22 4 30 13 27 5 -1 7 5 5 15 -2 9
-14 20 -28 24 -23 6 -23 7 -3 8 27 1 40 20 22 32 -11 7 -11 9 -1 9 7 0 11 4 7
10 -3 5 -13 7 -23 4 -9 -2 -7 1 6 7 12 7 22 18 22 26 0 12 -3 11 -16 -2 -9 -9
-24 -13 -35 -10 -10 4 -27 1 -36 -5 -16 -10 -14 -11 9 -7 25 4 37 -11 38 -46
0 -13 -63 -2 -68 11 -2 7 2 10 12 6 9 -3 16 -2 16 4 0 5 -6 12 -14 15 -7 3
-16 15 -19 26 -4 16 0 21 14 21 10 0 18 5 17 11 -5 22 23 21 29 0 l6 -22 11
22 c14 28 39 39 29 12 -7 -17 -6 -17 11 -1 24 25 12 38 -25 28 -28 -8 -30 -7
-23 13 6 21 5 20 -14 -3 -11 -14 -24 -21 -29 -17 -4 5 1 15 11 23 17 12 18 14
3 14 -9 0 -17 -5 -17 -11 0 -5 -5 -7 -11 -3 -8 5 -8 1 0 -14 14 -27 14 -32 -4
-32 -9 0 -12 6 -8 16 4 12 2 15 -8 12 -8 -3 -14 -15 -13 -27 0 -11 -3 -21 -8
-21 -4 0 -8 10 -9 23 0 12 -3 17 -5 11 -6 -14 -64 4 -64 19 0 5 -7 4 -15 -3
-13 -11 -14 -10 -9 4 7 19 9 19 35 6 24 -14 26 5 2 19 -10 6 -13 11 -6 11 6 0
18 3 26 6 8 3 17 -2 20 -10 4 -10 1 -13 -8 -10 -10 4 -12 0 -8 -15 4 -16 8
-18 23 -9 14 9 16 16 8 34 -12 25 -38 40 -38 22 0 -6 -3 -9 -6 -5 -3 3 -2 12
2 19 5 7 9 16 10 21 1 4 3 9 4 12 1 3 3 19 4 35 1 20 -3 29 -11 25 -7 -2 -13
0 -13 5 0 6 -5 10 -10 10 -7 0 -7 -7 0 -21 10 -19 10 -20 -9 -10 -25 14 -34
14 -26 1 3 -5 -1 -10 -9 -10 -9 0 -16 -4 -16 -9 0 -5 21 -7 47 -4 42 4 46 3
31 -10 -14 -11 -15 -16 -5 -27 9 -9 9 -11 0 -6 -6 3 -14 2 -18 -4 -3 -5 -12
-10 -18 -10 -7 0 -6 4 3 10 12 8 12 10 -5 10 -17 0 -17 2 -5 10 19 12 13 12
-28 0 -29 -8 -32 -7 -21 6 14 18 8 27 -14 18 -9 -3 -13 -12 -11 -19 7 -16 -13
-29 -46 -30 -15 0 -25 -6 -25 -15 -1 -8 -7 -14 -14 -12 -7 1 -10 -2 -6 -7 3
-6 -8 -17 -24 -26 -40 -20 -45 -19 -21 5 16 16 20 33 20 86 0 59 -2 65 -17 59
-10 -4 -47 -15 -83 -25 -36 -10 -81 -23 -100 -30 -96 -35 -141 -50 -210 -71
-41 -12 -77 -25 -80 -29 -3 -3 -13 -9 -23 -13 -9 -4 -20 -15 -24 -24 -3 -10
-11 -24 -17 -32 -16 -20 -16 -103 0 -97 7 3 18 -2 26 -11 11 -14 10 -15 -9 -9
-18 6 -20 4 -16 -14 3 -11 9 -20 14 -20 5 0 8 -3 6 -7 -1 -5 3 -9 8 -11 6 -2
18 -11 28 -19 10 -10 17 -12 17 -5 0 18 17 14 24 -5 10 -25 -10 -39 -31 -21
-10 8 -29 21 -43 27 -24 12 -24 11 3 -9 15 -12 27 -26 27 -31 0 -13 -40 -56
-40 -43 0 5 -5 1 -11 -8 -5 -10 -14 -18 -19 -18 -4 0 -27 -18 -49 -40 -22 -22
-43 -40 -47 -40 -12 0 -53 -38 -47 -44 3 -3 -3 -6 -14 -6 -13 0 -23 -8 -26
-21 -3 -12 -9 -19 -14 -17 -4 2 -20 -9 -35 -24 -15 -15 -24 -28 -20 -28 4 0 2
-4 -3 -8 -19 -12 -57 -73 -51 -79 3 -3 13 0 22 8 14 11 18 11 30 -6 8 -10 14
-14 14 -9 0 6 -5 15 -11 21 -19 19 164 193 204 193 10 0 15 5 12 10 -7 11 32
49 51 50 6 0 17 7 24 15 8 9 22 13 39 10 14 -3 20 -2 13 1 -18 9 -4 24 23 24
12 0 26 -7 29 -16 10 -26 6 -30 -9 -10 -13 17 -14 17 -11 -9 2 -14 10 -34 18
-43 13 -15 13 -21 -1 -49 -8 -18 -18 -33 -22 -33 -12 0 -21 34 -10 38 16 5 13
19 -3 25 -11 4 -13 1 -9 -10 4 -11 3 -14 -6 -9 -6 4 -11 15 -10 24 2 29 -1 46
-8 39 -9 -10 -10 -57 -1 -57 4 0 8 -5 8 -11 0 -5 -5 -7 -11 -4 -13 9 -8 -27 6
-37 6 -5 5 -8 -2 -8 -7 0 -13 -4 -13 -10 0 -5 7 -10 16 -10 13 0 15 7 10 30
-3 17 -2 29 3 26 5 -3 11 -22 13 -41 4 -33 3 -34 -24 -30 -23 4 -28 2 -28 -15
0 -11 5 -20 11 -20 18 0 0 -19 -19 -19 -9 -1 -34 -4 -55 -7 -26 -4 -37 -3 -37
6 0 7 6 10 14 7 7 -3 24 6 36 20 23 26 42 25 20 -2 -7 -8 -8 -15 -2 -15 16 0
21 26 12 57 -6 21 -9 23 -9 8 -2 -23 -42 -56 -70 -58 -16 -1 -17 -5 -10 -19 7
-13 6 -18 -5 -18 -8 0 -17 -6 -20 -12 -4 -7 -4 -3 -2 10 2 12 1 22 -4 22 -9 0
-23 -61 -15 -68 3 -3 5 2 5 10 0 9 8 15 20 14 11 0 20 -4 20 -8 0 -5 0 -16 0
-27 0 -10 -9 -21 -20 -24 -11 -3 -18 -1 -14 4 3 5 -2 9 -11 9 -26 0 -11 -25
16 -26 26 0 28 -20 2 -39 -13 -10 -13 -13 3 -26 16 -12 17 -12 11 3 -3 10 -2
20 3 23 6 4 10 0 10 -8 0 -11 7 -13 22 -9 21 5 21 5 -3 15 l-24 9 23 9 c12 4
22 11 22 15 0 3 -7 4 -15 0 -15 -5 -19 5 -15 34 3 22 8 24 24 7 8 -8 12 -17 9
-21 -4 -3 -3 -6 1 -6 4 0 14 7 23 15 8 8 20 12 26 8 8 -5 8 -8 -1 -11 -22 -7
-12 -23 11 -17 17 5 19 4 7 -4 -8 -6 -23 -8 -32 -5 -10 3 -18 1 -18 -4 0 -10
26 -25 45 -27 20 -1 35 -17 35 -36 0 -10 -4 -19 -10 -19 -5 0 -10 -6 -10 -13
0 -18 -40 -16 -41 3 -1 8 -4 2 -8 -14 -5 -24 -14 -32 -56 -45 -44 -13 -47 -16
-22 -19 15 -2 27 -7 27 -11 0 -21 40 -48 67 -45 l28 4 -27 -11 c-16 -6 -28
-14 -28 -18 0 -16 14 -20 27 -9 11 8 12 7 7 -6 -4 -10 -1 -16 7 -16 10 -1 9
-4 -3 -14 -10 -7 -14 -17 -10 -21 4 -5 1 -5 -5 -1 -7 4 -13 13 -13 21 0 17
-20 23 -50 14 -14 -4 -19 -7 -12 -8 7 -1 10 -6 6 -12 -5 -8 -1 -8 13 0 30 15
48 -7 26 -31 -15 -17 -15 -20 -3 -28 20 -13 37 -12 46 2 5 7 2 9 -9 5 -11 -4
-14 -2 -10 9 3 7 13 14 23 14 13 0 17 -5 13 -20 -3 -11 -10 -20 -15 -20 -5 0
-7 -4 -3 -9 3 -5 1 -12 -5 -16 -5 -3 -10 -1 -10 5 0 6 -5 8 -11 4 -6 -3 -15
-1 -19 6 -6 9 -11 7 -19 -9 -10 -17 -9 -21 4 -21 8 0 15 -5 15 -12 0 -9 3 -9
12 0 7 7 16 12 21 12 5 0 1 -7 -7 -16 -9 -9 -21 -12 -28 -7 -20 12 -38 12 -38
1 0 -6 7 -8 15 -4 8 3 15 2 15 -2 0 -4 11 -12 25 -19 21 -9 27 -8 35 5 8 14 9
13 10 -9 0 -14 5 -30 10 -35 7 -7 4 -10 -12 -9 -13 1 -26 -3 -30 -9 -6 -8 -11
-7 -17 3 -7 11 -9 11 -14 0 -4 -8 -3 -1 0 15 4 20 2 27 -5 22 -8 -5 -10 -2 -6
8 3 9 1 16 -5 16 -6 0 -11 -9 -11 -20 0 -11 -4 -20 -9 -20 -5 0 -7 -10 -4 -23
3 -15 2 -18 -5 -9 -7 11 -12 11 -25 -2 -8 -9 -20 -16 -26 -16 -18 0 -23 -20
-9 -37 10 -12 10 -17 1 -20 -7 -2 -9 -11 -6 -20 5 -11 3 -14 -6 -8 -10 6 -11
3 -3 -12 7 -12 7 -25 1 -34 -7 -12 -9 -12 -9 0 0 8 -3 12 -6 8 -3 -3 -2 -13 3
-22 9 -16 11 -16 26 0 16 15 17 15 13 -7 -3 -13 -5 -31 -5 -40 -1 -10 -6 -18
-12 -18 -6 0 -8 9 -4 23 6 21 5 21 -9 4 -17 -22 -11 -47 13 -47 9 0 22 -9 28
-19 11 -18 10 -19 -18 -11 -25 8 -29 7 -19 -4 6 -8 22 -17 35 -20 14 -4 25
-10 25 -15 0 -5 -9 -7 -20 -4 -11 3 -20 0 -20 -6 0 -6 6 -11 13 -11 7 0 13 -8
14 -17 1 -10 4 -29 7 -43 3 -14 4 -19 0 -12 -7 15 -25 16 -21 1 1 -6 -3 -13
-10 -16 -7 -3 -9 3 -6 16 3 13 1 21 -6 21 -7 0 -9 -5 -5 -12 4 -7 3 -8 -4 -4
-18 11 -15 36 3 30 17 -7 21 11 5 21 -6 4 -7 12 -4 18 5 8 3 8 -7 -1 -7 -6
-20 -12 -29 -11 -10 0 -11 2 -2 6 14 6 16 33 2 33 -5 0 -10 -6 -10 -12 0 -9
-4 -8 -10 2 -7 11 -4 20 13 32 12 10 17 18 10 18 -7 0 -10 7 -7 15 4 9 -1 18
-11 21 -13 5 -14 9 -3 15 9 6 9 9 1 9 -14 0 -43 28 -43 41 0 6 5 7 11 3 7 -4
9 0 5 14 -4 12 -2 23 5 28 9 5 10 2 6 -9 -9 -23 5 -22 20 2 10 16 8 18 -14 15
-21 -2 -24 1 -18 19 13 43 15 62 4 34 -10 -26 -12 -27 -26 -10 -13 17 -14 16
-10 -8 3 -22 0 -25 -15 -21 -14 3 -16 7 -7 12 6 5 9 16 5 25 -5 14 -2 17 19
13 21 -4 25 -1 25 19 0 13 -4 22 -9 19 -5 -3 -12 1 -15 10 -3 8 -2 12 4 9 6
-3 10 1 10 10 0 21 -27 30 -45 15 -10 -8 -15 -9 -15 -2 0 13 59 31 78 24 9 -3
10 -8 1 -18 -6 -7 -9 -19 -7 -26 3 -7 13 6 23 28 14 33 22 40 38 36 19 -5 19
-4 -2 17 -12 12 -30 20 -39 18 -15 -4 -16 -5 0 -6 11 -1 15 -7 11 -21 -6 -23
-19 -26 -26 -7 -4 9 -7 9 -18 0 -16 -15 -33 -17 -24 -3 3 6 1 10 -4 10 -6 0
-11 -7 -11 -15 0 -8 -5 -15 -11 -15 -7 0 -9 10 -5 25 5 20 3 25 -11 25 -14 0
-15 2 -4 9 7 5 10 15 7 22 -4 8 0 5 8 -5 10 -12 16 -15 16 -7 0 8 6 11 15 7 9
-3 15 0 15 9 0 8 4 15 10 15 5 0 7 -8 4 -18 -4 -10 -3 -13 3 -6 4 6 15 14 23
17 12 4 11 6 -2 6 -10 1 -18 7 -18 14 0 7 -5 18 -12 25 -6 6 -13 21 -15 32 -2
16 1 19 25 14 20 -4 32 0 43 12 13 16 12 16 -8 6 -29 -16 -34 -15 -27 3 4 8 1
15 -5 15 -6 0 -11 7 -11 16 0 9 -5 12 -12 8 -8 -5 -9 -2 -5 10 5 14 3 17 -8
12 -8 -3 -15 -1 -15 4 0 5 -7 7 -15 4 -8 -4 -15 -1 -15 5 0 6 8 11 18 12 9 0
12 3 6 5 -6 3 -9 17 -7 32 3 22 2 23 -5 8 -8 -18 -9 -18 -15 -2 -4 10 -5 21
-2 26 3 4 -4 6 -14 3 -23 -6 -24 -44 -2 -40 9 1 17 -6 19 -16 3 -16 1 -17 -17
-5 -25 15 -30 10 -38 -36 -4 -28 -2 -36 10 -36 12 0 13 -6 5 -38 -5 -22 -16
-39 -24 -39 -11 0 -11 4 3 19 9 10 13 21 10 25 -14 13 -37 -32 -31 -62 4 -27
4 -28 -7 -10 -7 11 -17 23 -22 26 -5 4 0 13 12 21 24 17 39 72 22 82 -15 10
-14 26 3 26 7 0 16 11 18 24 3 17 1 23 -8 19 -7 -2 -10 -12 -7 -20 4 -10 2
-14 -5 -9 -13 8 -23 -7 -27 -40 -1 -15 3 -24 11 -24 18 0 18 -11 0 -36 -8 -10
-18 -15 -22 -11 -5 4 -3 11 4 16 8 5 6 11 -7 23 -21 18 -31 14 -31 -11 0 -14
2 -14 10 -1 5 8 10 13 11 10 6 -34 4 -50 -9 -50 -11 0 -12 -3 -3 -14 9 -11 9
-15 0 -18 -8 -3 -10 -11 -4 -24 8 -18 8 -18 12 -1 4 17 6 17 20 -3 10 -14 22
-20 34 -17 26 7 24 -10 -2 -18 -13 -4 -25 -2 -29 5 -4 7 -13 9 -20 5 -7 -4
-16 -2 -21 6 -6 11 -9 8 -9 -8 0 -12 -5 -25 -10 -28 -15 -9 -13 -75 3 -75 6
-1 -1 -7 -18 -15 -16 -7 -27 -14 -23 -14 4 -1 2 -15 -3 -31 -11 -29 -27 -36
-69 -30 -8 1 -12 -1 -8 -5 4 -4 31 -8 61 -9 47 -1 53 1 49 17 -2 9 -8 17 -13
17 -5 0 -9 5 -9 10 0 6 12 8 27 5 28 -5 28 -5 3 5 -19 9 -22 13 -10 20 8 5 18
6 22 4 4 -3 18 -7 29 -9 28 -6 31 -9 23 -29 -5 -13 -13 -16 -32 -11 -22 5 -23
4 -9 -10 9 -8 24 -15 34 -15 15 0 16 -2 3 -10 -9 -6 -18 -6 -24 0 -15 15 -26
12 -26 -5 0 -11 -7 -14 -24 -9 -17 4 -30 -1 -45 -17 -20 -22 -20 -24 -4 -30
17 -6 17 -7 1 -14 -10 -4 -20 -15 -23 -25 -4 -12 -12 -17 -23 -14 -12 4 -14 3
-4 -3 9 -7 10 -16 3 -36 -6 -15 -14 -27 -18 -27 -5 0 -9 -16 -10 -36 -1 -28 1
-34 13 -30 17 7 18 -5 2 -23 -11 -11 -10 -13 3 -8 9 3 20 -3 27 -13 11 -18 10
-18 -24 -4 -20 8 -33 10 -29 5 3 -6 1 -11 -5 -11 -7 0 -10 -7 -6 -15 3 -8 0
-15 -6 -15 -7 0 -8 -14 -4 -41 4 -25 3 -38 -3 -35 -5 4 -12 2 -15 -3 -10 -15
22 -21 34 -6 12 14 10 36 -4 46 -4 4 -3 10 3 13 6 4 11 3 11 -2 0 -5 13 -7 28
-4 27 4 29 2 24 -26 -3 -22 -8 -29 -19 -25 -10 4 -11 9 -4 16 15 15 14 27 -4
27 -8 0 -15 -6 -15 -14 0 -18 -29 -72 -55 -103 -11 -14 -21 -32 -22 -41 -1 -9
-6 -32 -12 -49 -5 -18 -7 -33 -4 -33 3 0 1 -6 -5 -13 -7 -8 -7 -18 -2 -27 6
-8 10 -22 10 -30 0 -12 -2 -12 -9 -2 -13 21 -21 -52 -11 -90 9 -31 8 -32 -6
-13 l-16 20 3 -20 c2 -11 0 -26 -5 -34 -6 -10 -5 -12 2 -7 8 5 12 -1 12 -14 0
-12 -5 -18 -10 -15 -6 3 -10 -1 -10 -9 0 -9 -6 -16 -12 -17 -7 0 -5 -4 4 -7
16 -7 16 -8 -3 -20 -12 -8 -18 -9 -15 -3 4 6 2 19 -3 28 -9 16 -10 16 -11 -4
0 -13 -6 -23 -13 -23 -22 0 -28 -81 -7 -87 12 -4 12 -3 1 5 -22 15 -5 51 22
45 18 -4 19 -3 7 6 -13 9 -13 11 3 11 10 0 17 -7 17 -17 0 -16 2 -16 11 -3 9
12 10 12 5 -3 -3 -10 -6 -21 -6 -23 0 -3 -5 -2 -10 1 -6 3 -11 -6 -12 -22 -2
-49 -3 -53 -11 -53 -4 -1 -15 7 -25 17 -16 16 -16 17 1 10 9 -3 17 -2 17 3 0
6 -9 10 -19 10 -11 0 -26 3 -35 6 -10 4 -16 1 -16 -9 0 -8 -6 -18 -12 -20 -10
-4 -10 -6 0 -6 7 -1 10 -6 6 -12 -4 -7 -9 -29 -11 -49 -4 -34 -2 -38 24 -44
21 -6 31 -3 44 13 10 12 19 21 22 21 6 0 1 -71 -11 -157 -6 -42 -5 -64 2 -67
7 -3 7 -5 -1 -5 -6 -1 -9 -10 -6 -21 3 -11 0 -27 -7 -35 -8 -9 -8 -15 -2 -15
6 0 13 6 16 13 4 6 4 -4 1 -23 -3 -18 -11 -38 -18 -42 -6 -4 -7 -8 -2 -8 12 0
12 -77 0 -88 -5 -4 -5 -1 -1 6 4 6 3 12 -3 12 -15 0 -21 -14 -11 -30 7 -11 13
-11 37 4 24 14 23 12 -7 -13 -19 -17 -29 -31 -22 -31 7 0 12 -4 12 -10 0 -5
-6 -7 -14 -4 -11 4 -13 0 -9 -15 3 -12 10 -18 17 -14 14 9 41 46 39 54 -1 4
10 7 24 7 24 0 24 -2 7 -11 -32 -18 -41 -31 -36 -51 4 -13 1 -17 -7 -11 -18
11 -60 -14 -58 -36 1 -17 42 -18 949 -19 845 0 948 1 948 15 0 8 7 15 16 15 8
0 13 4 10 9 -4 5 -1 22 6 38 6 15 11 31 10 34 -2 10 29 193 34 198 2 2 4 -7 5
-20 1 -20 2 -18 10 10 6 18 12 31 14 29 9 -8 -13 -63 -24 -61 -6 2 -11 -6 -11
-17 0 -11 3 -20 8 -20 4 0 13 -9 20 -21 8 -12 9 -18 3 -14 -6 3 -11 0 -11 -7
0 -11 -2 -10 -9 0 -6 10 -10 9 -14 -7 -3 -12 -1 -21 4 -21 5 0 9 -8 9 -17 0
-16 -2 -16 -11 -3 -8 12 -9 11 -7 -5 3 -13 11 -19 23 -18 11 1 14 0 8 -3 -7
-3 -13 -22 -13 -42 0 -24 -3 -32 -9 -24 -6 10 -11 6 -19 -17 -6 -17 -7 -31 -2
-31 5 0 11 8 13 17 4 17 5 17 6 1 1 -17 78 -18 1374 -18 756 0 1376 3 1380 6
3 3 2 17 -4 30 -7 19 -5 26 6 30 9 4 14 14 13 22 -6 35 161 60 212 32 11 -6
25 -8 31 -4 6 4 16 0 21 -7 7 -11 11 -11 15 -1 2 6 13 12 24 12 23 0 25 25 3
34 -9 3 -34 6 -57 7 -30 0 -36 3 -23 8 36 14 -10 22 -64 10 -62 -13 -105 -9
-105 11 0 10 17 18 55 25 57 12 57 25 -1 23 -45 -1 -241 2 -256 4 -8 1 -13 16
-13 36 0 29 2 32 14 23 10 -8 16 -9 21 -1 3 5 15 10 26 10 10 0 19 5 19 11 0
9 23 10 83 5 76 -6 81 -6 62 9 -18 15 -17 15 12 1 17 -9 33 -20 35 -26 9 -29
234 -22 245 7 8 20 -14 32 -57 34 -57 1 -105 23 -106 48 -1 12 -11 32 -23 45
-11 12 -21 25 -21 29 0 12 38 7 52 -7 8 -7 23 -16 35 -20 12 -4 27 -13 33 -21
9 -11 36 -15 106 -15 57 0 95 -4 100 -11 8 -14 -14 -29 -43 -29 -45 0 -31 -19
35 -46 58 -23 81 -27 174 -28 62 -1 108 -5 108 -11 1 -5 -25 -15 -57 -22 -32
-7 -66 -17 -75 -23 -23 -13 -58 -13 -58 0 0 11 -113 14 -124 3 -7 -8 -13 -8
-80 -11 -48 -2 -40 -12 22 -29 123 -32 158 -35 195 -14 31 17 48 19 145 14
102 -5 111 -4 139 17 21 15 54 25 104 30 41 5 88 12 106 16 27 5 31 4 29 -12
-2 -12 -12 -20 -27 -22 -65 -7 -189 -48 -189 -62 0 -4 15 -11 33 -14 78 -16
87 -19 87 -27 0 -10 186 -2 204 9 6 3 37 9 69 13 58 7 103 -7 146 -45 13 -12
95 -23 194 -26 10 0 17 -8 17 -20 0 -12 10 -24 23 -30 l22 -9 -23 0 c-13 -1
-21 -4 -19 -9 3 -4 112 -8 243 -10 131 -1 235 0 232 3 -3 3 -45 6 -93 6 -79 2
-92 4 -114 26 -19 17 -23 26 -14 31 22 14 -54 34 -100 27 -26 -4 -37 -3 -29 3
7 5 10 16 6 26 -5 12 -1 19 15 23 30 8 21 26 -15 30 -16 2 -44 13 -62 24 -35
20 -102 26 -102 9 0 -10 23 -17 70 -22 37 -4 37 -33 0 -48 -35 -15 -86 -7
-112 17 -14 13 -36 17 -86 16 -47 -1 -60 1 -42 7 15 5 19 8 8 9 -9 1 -25 11
-35 24 -17 21 -82 57 -104 57 -11 0 -92 52 -97 61 -4 10 -42 -2 -42 -12 0 -17
-32 -9 -62 16 -19 16 -42 25 -63 25 -37 0 -53 14 -32 27 8 4 17 20 20 34 l7
26 -95 7 c-122 9 -184 1 -178 -24 5 -20 -20 -27 -133 -37 -67 -5 -71 -4 -77
16 -3 13 -13 21 -26 21 -21 0 -145 63 -166 84 -6 6 -34 22 -62 35 -31 14 -53
32 -57 44 -3 12 -4 23 -2 24 7 7 116 -26 140 -42 32 -21 146 -32 172 -17 18
11 18 11 1 12 -30 0 -16 33 18 42 17 4 44 14 60 22 17 8 38 17 48 20 12 4 17
14 16 28 -2 13 0 29 5 36 15 24 -70 72 -127 72 -43 0 -55 15 -33 39 19 21 12
48 -14 56 -10 3 -45 -3 -77 -14 -32 -10 -77 -22 -100 -26 -24 -4 -46 -11 -49
-17 -5 -7 5 -9 29 -4 22 4 38 2 42 -4 4 -6 18 -15 31 -20 32 -12 30 -27 -3
-35 -38 -8 -67 -31 -58 -45 4 -6 21 -20 39 -31 l31 -19 -32 0 c-18 0 -43 5
-57 11 -19 9 -35 8 -73 -4 -26 -8 -60 -13 -75 -10 -21 4 -28 1 -28 -11 0 -9 4
-16 9 -16 19 0 4 -55 -15 -59 -10 -2 -22 -8 -26 -14 -10 -16 -224 -15 -239 1
-7 6 -18 12 -23 12 -8 0 -8 -3 0 -8 6 -4 7 -17 3 -32 -7 -25 -7 -25 -8 -2 -1
15 -5 21 -13 16 -8 -5 -9 -2 -3 12 4 10 12 39 17 64 12 55 25 66 79 68 55 2
65 12 13 12 -22 0 -45 5 -52 12 -9 9 -12 8 -12 -7 0 -46 -12 2 -27 101 -8 60
-18 129 -23 154 -4 25 -15 95 -24 155 -19 131 -30 190 -58 308 -19 82 -20 96
-8 200 17 145 27 511 17 606 -15 150 -78 352 -136 437 -20 28 -75 94 -123 145
-69 75 -97 115 -138 197 -115 231 -244 350 -435 400 -36 9 -65 22 -65 28 0 6
7 31 15 54 8 23 15 66 15 95 0 63 14 106 40 123 38 23 159 34 348 29 l188 -5
29 36 c50 59 96 209 60 196 -8 -4 -15 -1 -15 5 0 6 -7 8 -16 4 -14 -5 -16 -1
-12 20 3 15 1 27 -3 27 -5 0 -9 -4 -9 -10 0 -12 -27 -13 -34 -1 -4 5 -3 16 0
25 5 14 9 14 22 4 13 -11 14 -10 8 9 -6 19 -4 21 16 18 13 -3 29 -13 36 -22
12 -16 13 -15 12 12 -3 51 -1 62 9 46 7 -10 11 -5 16 18 4 17 17 39 30 47 42
28 41 51 -4 94 -23 22 -46 40 -51 40 -6 0 -10 5 -10 11 0 7 13 9 38 5 20 -4
42 -3 48 1 31 22 46 97 22 106 -10 4 -10 8 -2 14 7 5 9 26 5 59 -9 63 -5 74
22 74 68 0 157 58 157 102 0 11 -4 17 -9 14 -5 -4 -11 -1 -13 5 -4 13 -144 13
-212 0 -56 -10 -96 6 -96 40 0 10 -7 22 -16 27 -13 7 -14 13 -5 31 15 27 7 41
-25 41 -13 0 -25 -1 -25 -2z m-144 -228 c-3 -5 -12 -10 -18 -10 -7 0 -6 4 3
10 19 12 23 12 15 0z m-610 -409 c3 -5 1 -12 -5 -16 -5 -3 -10 1 -10 9 0 18 6
21 15 7z m775 -150 c0 -15 -16 -22 -34 -15 -25 9 -19 24 9 24 14 0 25 -4 25
-9z m-1064 -218 c-10 -10 -19 5 -10 18 6 11 8 11 12 0 2 -7 1 -15 -2 -18z
m-72 -67 c-21 -15 -30 -14 -19 3 3 6 14 11 23 11 13 0 13 -2 -4 -14z m-1017
-32 c-3 -3 -12 -4 -19 -1 -8 3 -5 6 6 6 11 1 17 -2 13 -5z m-50 -86 c-3 -8 -6
-5 -6 6 -1 11 2 17 5 13 3 -3 4 -12 1 -19z m-81 -24 c-4 -9 -9 -15 -11 -12 -3
3 -3 13 1 22 4 9 9 15 11 12 3 -3 3 -13 -1 -22z m144 -38 c0 -3 -4 -8 -10 -11
-5 -3 -10 -1 -10 4 0 6 5 11 10 11 6 0 10 -2 10 -4z m-10 -36 c0 -5 -5 -10
-11 -10 -5 0 -7 5 -4 10 3 6 8 10 11 10 2 0 4 -4 4 -10z m-105 -300 c-3 -5
-11 -10 -16 -10 -6 0 -7 5 -4 10 3 6 11 10 16 10 6 0 7 -4 4 -10z m55 -66 c0
-2 -7 -4 -15 -4 -8 0 -15 4 -15 10 0 5 7 7 15 4 8 -4 15 -8 15 -10z m1539 -65
c7 -22 10 -43 8 -45 -2 -3 -10 16 -17 41 -7 24 -16 43 -20 40 -3 -2 -7 2 -7
10 0 27 23 -3 36 -46z m-1572 19 c-3 -8 -6 -5 -6 6 -1 11 2 17 5 13 3 -3 4
-12 1 -19z m-400 -4 c-3 -3 -12 -4 -19 -1 -8 3 -5 6 6 6 11 1 17 -2 13 -5z
m-272 -35 c5 -5 -4 -8 -23 -5 -18 2 -32 -1 -32 -5 0 -5 14 -9 30 -9 17 0 30
-4 30 -10 0 -5 -4 -10 -8 -10 -5 0 -9 -6 -9 -14 0 -8 8 -11 19 -8 10 2 24 -1
32 -7 8 -7 16 -8 18 -4 3 4 3 2 2 -4 -2 -7 4 -13 13 -13 19 0 9 -13 -12 -16
-8 -1 -15 3 -15 9 0 7 -5 6 -10 -3 -8 -12 -12 -12 -19 -2 -4 7 -15 14 -24 16
-9 1 -24 9 -34 18 -27 23 -63 29 -70 11 -5 -12 -7 -12 -14 -1 -14 21 -11 36
12 59 17 17 28 19 62 14 23 -4 46 -11 52 -16z m216 -22 c-10 -9 -11 -8 -5 6 3
10 9 15 12 12 3 -3 0 -11 -7 -18z m-156 -7 c3 -5 2 -10 -4 -10 -5 0 -13 5 -16
10 -3 6 -2 10 4 10 5 0 13 -4 16 -10z m2205 -20 c0 -5 -2 -10 -4 -10 -3 0 -8
5 -11 10 -3 6 -1 10 4 10 6 0 11 -4 11 -10z m-2125 -10 c3 -5 1 -10 -4 -10 -6
0 -11 5 -11 10 0 6 2 10 4 10 3 0 8 -4 11 -10z m-65 -65 c0 -1 -9 -12 -20 -25
-19 -22 -20 -23 -20 -2 0 11 -6 22 -12 25 -7 3 2 5 20 4 17 0 32 -1 32 -2z
m35 -16 c-4 -5 -2 -9 4 -9 5 0 11 6 14 13 3 6 2 -8 -1 -32 -4 -38 -3 -43 11
-38 10 4 17 2 17 -3 0 -6 -7 -10 -15 -10 -16 0 -41 38 -37 58 2 6 -5 13 -15
13 -17 1 -17 2 0 6 9 2 14 9 11 15 -4 7 -2 8 5 4 6 -4 9 -12 6 -17z m293 7
c-7 -8 -15 -12 -17 -11 -5 6 10 25 20 25 5 0 4 -6 -3 -14z m-492 -9 c-11 -7
-28 -20 -38 -29 -10 -10 -28 -18 -40 -18 -18 0 -11 7 27 30 47 28 93 43 51 17z
m2354 -27 c0 -5 -2 -10 -4 -10 -3 0 -8 5 -11 10 -3 6 -1 10 4 10 6 0 11 -4 11
-10z m-2090 -4 c0 -3 -4 -8 -10 -11 -5 -3 -10 -1 -10 4 0 6 5 11 10 11 6 0 10
-2 10 -4z m546 -43 c-10 -10 -19 5 -10 18 6 11 8 11 12 0 2 -7 1 -15 -2 -18z
m-968 3 c-10 -7 -15 -16 -11 -19 3 -4 0 -7 -8 -7 -8 0 -23 -7 -33 -15 -16 -12
-17 -17 -6 -30 7 -8 9 -15 6 -15 -10 0 -36 27 -36 38 0 4 -13 7 -30 4 -18 -3
-30 0 -30 7 0 6 18 11 43 11 23 1 58 9 77 20 41 22 52 25 28 6z m472 -28 c0
-5 -11 -1 -25 8 -14 9 -25 18 -25 20 0 2 11 -2 25 -8 14 -6 25 -15 25 -20z
m-116 13 c4 -5 -1 -8 -9 -7 -21 3 -31 16 -12 16 9 0 18 -4 21 -9z m88 -20 c4
-4 -1 -7 -12 -8 -11 -1 -20 3 -20 8 0 6 -4 7 -10 4 -5 -3 -10 -1 -10 5 0 11
37 5 52 -9z m512 -14 c-7 -19 -24 -23 -24 -6 0 5 -4 7 -10 4 -6 -4 -4 -16 6
-31 9 -13 12 -24 8 -24 -5 0 -15 12 -21 27 -14 30 -2 46 25 35 12 -4 14 -1 8
14 -5 14 -4 16 4 8 6 -6 8 -18 4 -27z m-563 3 c10 0 19 -5 19 -10 0 -6 -11 -8
-26 -4 -17 4 -29 2 -35 -7 -6 -10 -9 -8 -9 10 0 17 4 22 16 17 9 -3 24 -6 35
-6z m-368 -20 c-2 -3 -18 -5 -35 -6 -18 -1 -25 1 -18 6 13 8 62 8 53 0z m457
0 c0 -5 -7 -7 -15 -4 -8 4 -15 8 -15 10 0 2 7 4 15 4 8 0 15 -4 15 -10z m-76
-42 c6 -4 1 -8 -12 -8 -13 0 -21 4 -18 9 4 5 1 11 -6 13 -7 3 -8 10 -3 17 6
11 10 9 18 -5 6 -11 15 -22 21 -26z m23 26 c-3 -3 -12 -4 -19 -1 -8 3 -5 6 6
6 11 1 17 -2 13 -5z m47 -22 c-13 -12 -13 -16 -2 -23 10 -6 10 -10 0 -19 -6
-5 -10 -7 -7 -3 3 3 -5 18 -17 31 -20 22 -20 24 -4 18 13 -4 17 -2 13 8 -4 10
0 12 13 9 17 -5 18 -7 4 -21z m36 -6 c0 -3 -4 -8 -10 -11 -5 -3 -10 -1 -10 4
0 6 5 11 10 11 6 0 10 -2 10 -4z m-503 -12 c-3 -3 -12 -4 -19 -1 -8 3 -5 6 6
6 11 1 17 -2 13 -5z m25 -26 c-7 -7 -10 -5 -7 8 5 29 6 30 12 16 3 -8 1 -18
-5 -24z m-87 16 c12 -5 14 -9 4 -14 -15 -10 -41 -1 -33 11 6 11 8 11 29 3z
m445 -6 c0 -10 3 -9 9 1 5 7 13 12 19 10 7 -3 6 -10 -2 -21 -12 -17 -14 -17
-31 2 -10 11 -13 20 -7 20 7 0 12 -6 12 -12z m-262 -18 c-7 -10 -14 -17 -17
-15 -4 4 18 35 25 35 2 0 -1 -9 -8 -20z m312 -4 c0 -8 8 -17 18 -20 10 -3 7
-4 -8 -3 -24 2 -44 37 -21 37 6 0 11 -6 11 -14z m81 -4 c-7 -2 -18 1 -23 6 -8
8 -4 9 13 5 13 -4 18 -8 10 -11z m294 8 c-3 -5 -12 -10 -18 -10 -7 0 -6 4 3
10 19 12 23 12 15 0z m-829 -25 c2 -22 0 -23 -14 -9 -13 14 -13 17 -1 25 8 5
14 9 14 9 0 0 1 -11 1 -25z m909 15 c11 -17 -5 -31 -19 -17 -14 12 -12 27 4
27 5 0 12 -4 15 -10z m-373 -34 c6 4 8 3 5 -4 -11 -16 -47 -3 -40 15 5 13 7
13 15 -1 5 -9 14 -13 20 -10z m-492 -11 c7 -9 11 -17 8 -20 -2 -2 -12 4 -21
15 -9 11 -13 20 -8 20 5 0 14 -7 21 -15z m435 5 c-3 -5 -10 -10 -16 -10 -5 0
-9 5 -9 10 0 6 7 10 16 10 8 0 12 -4 9 -10z m409 1 c3 -5 -2 -15 -12 -22 -15
-12 -16 -12 -5 2 7 9 10 19 6 22 -3 4 -4 7 0 7 3 0 8 -4 11 -9z m-864 -22 c0
-6 -6 -9 -12 -6 -7 2 -21 0 -31 -5 -10 -5 -26 -6 -35 -2 -13 6 -8 9 18 14 53
11 60 11 60 -1z m889 -10 c-16 -10 -23 -4 -14 10 3 6 11 8 17 5 6 -4 5 -9 -3
-15z m-419 2 c0 -5 -9 -7 -20 -4 -11 3 -20 7 -20 9 0 2 9 4 20 4 11 0 20 -4
20 -9z m-163 -23 c-3 -8 -6 -5 -6 6 -1 11 2 17 5 13 3 -3 4 -12 1 -19z m187 8
c-6 -16 34 -58 47 -50 13 8 49 14 49 8 0 -3 -7 -13 -16 -21 -11 -11 -18 -13
-23 -5 -4 7 -12 8 -21 2 -10 -7 -11 -10 -2 -10 6 0 12 -7 12 -16 0 -13 -3 -14
-15 -4 -8 6 -20 8 -27 4 -7 -5 -5 5 6 20 14 22 15 28 4 24 -8 -4 -20 2 -26 13
-12 19 -7 49 9 49 4 0 6 -6 3 -14z m23 -8 c-3 -8 -6 -5 -6 6 -1 11 2 17 5 13
3 -3 4 -12 1 -19z m-446 -2 c5 3 9 0 9 -6 0 -15 -23 -7 -26 8 -1 7 0 8 3 2 2
-5 9 -8 14 -4z m-91 -56 c-9 -5 -20 -5 -27 2 -18 14 -16 29 2 22 10 -4 15 0
16 12 0 16 2 15 12 -4 8 -19 8 -25 -3 -32z m905 32 c-3 -3 -11 0 -18 7 -9 10
-8 11 6 5 10 -3 15 -9 12 -12z m-228 -54 c2 -18 0 -20 -7 -8 -12 18 -13 30 -2
30 4 0 9 -10 9 -22z m-627 -24 c0 -25 -15 -40 -23 -24 -3 6 -4 5 -3 -2 1 -7
12 -14 24 -16 21 -3 21 -3 1 -23 -23 -23 -33 -25 -25 -4 6 17 -5 20 -20 5 -7
-7 -10 2 -10 25 0 22 5 35 13 35 7 0 13 4 13 9 0 5 -9 7 -20 4 -11 -3 -20 -14
-20 -24 0 -11 -4 -19 -8 -19 -10 0 -9 30 1 46 3 6 22 11 42 11 30 0 35 -4 35
-23z m50 20 c0 -8 -19 -13 -24 -6 -3 5 1 9 9 9 8 0 15 -2 15 -3z m525 -14 c-3
-5 -1 -10 4 -10 6 0 11 -4 11 -9 0 -5 -9 -7 -20 -4 -16 4 -18 8 -9 19 13 16
23 19 14 4z m-435 -15 c0 -12 -19 -12 -23 0 -4 9 -1 12 9 8 7 -3 14 -7 14 -8z
m416 -32 c-7 -8 -46 12 -46 24 0 11 5 10 24 -4 13 -10 23 -19 22 -20z m-506
23 c0 -3 -4 -8 -10 -11 -5 -3 -10 -1 -10 4 0 6 5 11 10 11 6 0 10 -2 10 -4z
m33 -23 c-7 -2 -19 -2 -25 0 -7 3 -2 5 12 5 14 0 19 -2 13 -5z m57 -9 c0 -8
-5 -12 -10 -9 -6 4 -8 11 -5 16 9 14 15 11 15 -7z m-211 2 c-2 -2 -17 -6 -34
-10 -22 -5 -26 -4 -15 4 14 9 59 15 49 6z m97 -42 c-13 -12 -16 -12 -16 -2 0
19 24 42 28 28 2 -5 -4 -17 -12 -26z m539 26 c3 -5 -3 -10 -14 -10 -12 0 -21
5 -21 10 0 6 6 10 14 10 8 0 18 -4 21 -10z m260 -21 c-4 -5 -1 -9 4 -9 6 0 11
-5 11 -11 0 -8 -5 -8 -15 1 -17 14 -21 45 -5 35 6 -4 8 -11 5 -16z m-991 -10
c-10 -4 -14 -8 -8 -8 14 -1 39 -59 30 -68 -3 -4 -12 -1 -18 5 -9 9 -9 12 0 12
6 0 9 7 6 15 -4 8 -10 13 -14 10 -5 -3 -12 4 -15 16 -8 23 11 43 29 32 5 -4 1
-10 -10 -14z m937 8 c-7 -7 -14 -8 -21 -1 -6 6 -2 10 12 11 16 2 18 -1 9 -10z
m-988 -10 c8 5 8 2 0 -8 -10 -12 -10 -18 0 -29 10 -10 9 -11 -2 -5 -8 4 -17 2
-23 -6 -8 -11 -9 -10 -4 4 3 9 1 17 -4 17 -6 0 -10 -8 -10 -17 -1 -15 -4 -14
-20 6 -24 28 -26 43 -5 35 8 -4 12 -11 8 -18 -3 -6 5 0 17 13 15 15 25 20 28
13 2 -7 9 -9 15 -5z m127 4 c0 -6 -4 -13 -10 -16 -5 -3 -10 1 -10 9 0 9 5 16
10 16 6 0 10 -4 10 -9z m50 5 c0 -3 -4 -8 -10 -11 -5 -3 -10 -1 -10 4 0 6 5
11 10 11 6 0 10 -2 10 -4z m156 -24 c-17 -16 -18 -16 -5 5 7 12 15 20 18 17 3
-2 -3 -12 -13 -22z m478 13 c5 0 11 -7 13 -15 4 -12 3 -12 -5 -2 -5 8 -12 13
-16 13 -19 -3 -26 0 -26 10 0 6 5 7 13 2 6 -4 16 -8 21 -8z m-614 -15 c0 -5
-5 -10 -11 -10 -5 0 -7 5 -4 10 3 6 8 10 11 10 2 0 4 -4 4 -10z m270 0 c0 -5
-7 -10 -16 -10 -8 0 -12 5 -9 10 3 6 10 10 16 10 5 0 9 -4 9 -10z m115 0 c3
-5 1 -10 -4 -10 -6 0 -11 5 -11 10 0 6 2 10 4 10 3 0 8 -4 11 -10z m-345 -15
c-7 -9 -15 -13 -19 -10 -3 3 1 10 9 15 21 14 24 12 10 -5z m2494 7 c3 -5 -1
-9 -9 -9 -8 0 -12 4 -9 9 3 4 7 8 9 8 2 0 6 -4 9 -8z m-2614 -12 c8 -5 11 -12
8 -16 -4 -3 -14 1 -23 10 -18 17 -9 21 15 6z m35 0 c3 -5 1 -10 -4 -10 -6 0
-11 5 -11 10 0 6 2 10 4 10 3 0 8 -4 11 -10z m51 -20 c8 0 14 -4 14 -10 0 -12
-22 -9 -32 5 -4 6 -7 15 -7 20 0 6 3 4 6 -2 2 -7 11 -13 19 -13z m701 5 c0 -8
-4 -15 -9 -15 -10 0 -11 14 -1 23 9 10 10 9 10 -8z m1984 -26 c-6 -17 -8 -35
-5 -40 3 -5 1 -9 -4 -9 -6 0 -13 -11 -16 -25 -14 -57 -60 -116 -108 -138 -26
-12 -52 -31 -59 -44 -17 -31 -43 -40 -33 -11 8 26 41 55 72 63 13 3 32 14 42
23 27 25 90 133 90 153 0 22 21 71 28 65 2 -3 -1 -19 -7 -37z m-2643 -4 c-3
-3 -9 2 -12 12 -6 14 -5 15 5 6 7 -7 10 -15 7 -18z m-103 -3 c-3 -3 -11 0 -18
7 -9 10 -8 11 6 5 10 -3 15 -9 12 -12z m402 -4 c-3 -8 -6 -5 -6 6 -1 11 2 17
5 13 3 -3 4 -12 1 -19z m2166 -3 c-3 -9 -8 -14 -10 -11 -3 3 -2 9 2 15 9 16
15 13 8 -4z m-2553 -15 c0 -5 -2 -10 -4 -10 -3 0 -8 5 -11 10 -3 6 -1 10 4 10
6 0 11 -4 11 -10z m227 -6 c-3 -3 -12 -4 -19 -1 -8 3 -5 6 6 6 11 1 17 -2 13
-5z m-170 -26 c-3 -8 -6 -5 -6 6 -1 11 2 17 5 13 3 -3 4 -12 1 -19z m814 -1
c-10 -9 -11 -8 -5 6 3 10 9 15 12 12 3 -3 0 -11 -7 -18z m-833 -24 c0 -25 -1
-26 -14 -8 -8 10 -14 22 -14 27 0 4 6 8 14 8 8 0 14 -11 14 -27z m-98 -8 c0
-14 -3 -25 -7 -25 -5 0 -8 11 -8 25 0 14 3 25 8 25 4 0 7 -11 7 -25z m-33 -7
c-3 -8 -6 -5 -6 6 -1 11 2 17 5 13 3 -3 4 -12 1 -19z m79 -18 c9 0 13 -4 9
-10 -9 -14 -35 0 -34 19 0 10 2 11 6 4 2 -7 11 -13 19 -13z m560 -27 c-2 -10
-11 -19 -22 -20 -18 -3 -18 -2 1 6 11 5 16 10 12 10 -5 1 -5 6 -2 11 9 15 14
12 11 -7z m-683 -10 c-7 -2 -13 -12 -13 -21 0 -14 -2 -15 -9 -2 -12 18 -5 30
17 29 11 0 12 -3 5 -6z m165 -11 c2 -7 -3 -12 -12 -12 -9 0 -16 7 -16 16 0 17
22 14 28 -4z m1957 7 c11 -16 2 -17 -25 -2 -24 12 -24 13 -3 13 12 0 25 -5 28
-11z m-1409 -15 c-5 -12 -1 -14 17 -9 19 5 20 4 4 -5 -21 -13 -38 -5 -30 15 3
8 7 15 10 15 3 0 2 -7 -1 -16z m-751 -22 c-3 -3 -11 0 -18 7 -9 10 -8 11 6 5
10 -3 15 -9 12 -12z m-30 -2 c3 -5 1 -10 -4 -10 -6 0 -11 5 -11 10 0 6 2 10 4
10 3 0 8 -4 11 -10z m209 -6 c3 -8 2 -12 -4 -9 -6 3 -10 10 -10 16 0 14 7 11
14 -7z m-512 -19 c-2 -14 -6 -25 -8 -25 -2 0 -4 11 -4 25 0 14 4 25 9 25 4 0
6 -11 3 -25z m388 1 c0 -2 -8 -2 -19 1 -10 2 -25 -3 -34 -11 -9 -9 -18 -12
-22 -7 -3 5 4 12 15 16 11 3 20 11 20 16 0 6 8 6 20 -1 11 -6 20 -12 20 -14z
m80 -1 c0 -8 -4 -15 -9 -15 -13 0 -22 16 -14 24 11 11 23 6 23 -9z m-44 -25
c1 -38 -1 -38 -15 0 -7 22 -7 30 2 30 7 0 12 -14 13 -30z m124 20 c0 -5 -5
-10 -11 -10 -5 0 -7 5 -4 10 3 6 8 10 11 10 2 0 4 -4 4 -10z m588 -15 c-3 -3
-9 2 -12 12 -6 14 -5 15 5 6 7 -7 10 -15 7 -18z m-619 11 c-2 -2 -15 -9 -29
-15 -24 -11 -24 -11 -6 3 16 13 49 24 35 12z m701 -24 c0 -5 -7 -9 -15 -9 -8
0 -12 4 -9 9 3 4 9 8 15 8 5 0 9 -4 9 -8z m-670 -23 c0 -6 -6 -16 -13 -23 -10
-11 -15 -10 -25 1 -11 11 -9 13 9 13 15 0 19 4 15 16 -3 8 -2 12 4 9 6 -3 10
-11 10 -16z m2450 1 c0 -6 -11 -8 -27 -4 -40 10 -41 14 -5 14 18 0 32 -5 32
-10z m-2953 -22 c-3 -8 -6 -5 -6 6 -1 11 2 17 5 13 3 -3 4 -12 1 -19z m58 12
c3 -5 -1 -10 -9 -10 -9 0 -16 5 -16 10 0 6 4 10 9 10 6 0 13 -4 16 -10z m480
0 c-3 -5 -11 -10 -16 -10 -6 0 -7 5 -4 10 3 6 11 10 16 10 6 0 7 -4 4 -10z
m812 -15 c-4 -8 -11 -15 -17 -15 -7 0 -7 6 0 21 13 23 26 19 17 -6z m-273 0
c-4 -8 -11 -15 -16 -15 -6 0 -5 6 2 15 7 8 14 15 16 15 2 0 1 -7 -2 -15z m119
0 c-3 -9 -8 -14 -10 -11 -3 3 -2 9 2 15 9 16 15 13 8 -4z m-832 -42 l-4 -38
-8 30 c-7 25 -2 39 16 45 1 0 -1 -17 -4 -37z m49 31 c0 -8 -19 -13 -24 -6 -3
5 1 9 9 9 8 0 15 -2 15 -3z m48 -31 c-6 -8 -14 -11 -17 -7 -3 4 -1 9 6 11 7 2
9 12 6 21 -4 14 -3 15 5 2 8 -10 8 -18 0 -27z m759 15 c-3 -8 -6 -5 -6 6 -1
11 2 17 5 13 3 -3 4 -12 1 -19z m-1231 -30 c-2 -16 -7 -32 -11 -36 -4 -4 -5 3
-2 16 6 25 0 28 -22 8 -14 -12 -18 -12 -30 1 -12 13 -11 14 7 9 15 -5 22 -2
26 12 10 31 36 23 32 -10z m1339 22 c3 -6 -1 -7 -9 -4 -18 7 -21 14 -7 14 6 0
13 -4 16 -10z m-898 -42 c-3 -7 -5 -2 -5 12 0 14 2 19 5 13 2 -7 2 -19 0 -25z
m870 10 c-3 -8 -6 -5 -6 6 -1 11 2 17 5 13 3 -3 4 -12 1 -19z m-824 5 c-7 -2
-13 -11 -13 -19 0 -9 -5 -12 -10 -9 -13 8 6 35 24 34 7 0 6 -2 -1 -6z m627
-28 c0 -18 -4 -23 -15 -19 -8 4 -15 10 -15 16 0 5 5 6 10 3 6 -3 10 1 10 9 0
9 2 16 5 16 3 0 5 -11 5 -25z m-1093 -7 c-3 -8 -6 -5 -6 6 -1 11 2 17 5 13 3
-3 4 -12 1 -19z m600 -4 c-3 -3 -12 -4 -19 -1 -8 3 -5 6 6 6 11 1 17 -2 13 -5z
m-281 -31 c-10 -10 -19 5 -10 18 6 11 8 11 12 0 2 -7 1 -15 -2 -18z m44 17 c0
-5 -5 -10 -11 -10 -5 0 -7 -6 -3 -12 5 -10 4 -10 -6 -1 -7 6 -9 16 -6 22 9 14
26 14 26 1z m790 -6 c0 -2 -7 -4 -15 -4 -8 0 -15 4 -15 10 0 5 7 7 15 4 8 -4
15 -8 15 -10z m-37 -7 c3 -9 -2 -13 -16 -11 -33 4 -34 5 -12 14 11 5 21 9 21
9 1 1 4 -5 7 -12z m-1255 -26 c-2 -10 -11 -15 -27 -13 -16 3 -22 -1 -19 -10 3
-8 17 -12 37 -10 22 1 30 -1 25 -9 -4 -8 0 -8 15 0 11 7 21 16 21 21 0 6 5 10
10 10 6 0 10 -11 10 -24 0 -22 -4 -24 -45 -23 -25 0 -45 4 -45 8 0 5 -6 6 -14
3 -19 -7 -28 22 -15 50 13 27 52 25 47 -3z m469 -38 c-3 -10 -5 -2 -5 17 0 19
2 27 5 18 2 -10 2 -26 0 -35z m-434 23 c4 -10 1 -13 -8 -9 -8 3 -12 9 -9 14 7
12 11 11 17 -5z m1207 10 c0 -3 -4 -8 -10 -11 -5 -3 -10 -1 -10 4 0 6 5 11 10
11 6 0 10 -2 10 -4z m-1139 -33 c-8 -15 -10 -15 -11 -2 0 17 10 32 18 25 2 -3
-1 -13 -7 -23z m1169 2 c0 -33 -15 -33 -16 0 -1 14 2 25 7 25 5 0 9 -11 9 -25z
m-750 6 c0 -5 -7 -11 -14 -14 -10 -4 -13 -1 -9 9 6 15 23 19 23 5z m-28 -63
c-7 -7 -12 -8 -12 -2 0 6 3 14 7 17 3 4 9 5 12 2 2 -3 -1 -11 -7 -17z m808 18
c0 -2 -7 -7 -16 -10 -8 -3 -12 -2 -9 4 6 10 25 14 25 6z m-903 -56 c7 0 13 -4
13 -10 0 -5 -4 -10 -9 -10 -12 0 -41 40 -40 55 0 5 5 0 11 -12 6 -13 17 -23
25 -23z m943 5 c14 -19 14 -19 -2 -6 -12 9 -18 10 -18 2 0 -6 -5 -11 -10 -11
-6 0 -5 8 2 20 7 10 13 18 13 17 0 -1 7 -11 15 -22z m-1309 6 c-12 -8 -13 -12
-1 -26 11 -13 15 -13 23 -3 6 9 7 8 3 -5 -3 -10 -6 -23 -6 -28 0 -5 -6 -4 -14
3 -8 7 -12 16 -10 20 2 3 -1 8 -8 10 -15 5 -3 38 14 38 10 0 9 -3 -1 -9z m446
-13 c-3 -8 -6 -5 -6 6 -1 11 2 17 5 13 3 -3 4 -12 1 -19z m-347 -21 c0 -3 -11
0 -24 6 -15 7 -20 14 -14 18 10 6 38 -12 38 -24z m433 3 c-3 -11 -9 -17 -15
-14 -5 3 -4 12 3 20 16 19 18 18 12 -6z m-49 -22 c7 -5 5 -8 -6 -8 -9 0 -18
-3 -21 -7 -2 -5 -2 -2 -1 5 2 6 -1 12 -7 12 -5 0 -4 6 3 14 9 10 14 11 17 3 2
-7 9 -15 15 -19z m-408 -30 c5 2 10 -2 12 -10 2 -8 0 -9 -5 -3 -4 6 -17 12
-28 13 -26 5 -27 6 -19 27 6 15 8 15 20 -6 7 -13 16 -23 20 -21z m4 32 c0 -5
-2 -10 -4 -10 -3 0 -8 5 -11 10 -3 6 -1 10 4 10 6 0 11 -4 11 -10z m1206 -10
c0 -12 -4 -16 -9 -11 -5 5 -6 14 -3 20 10 15 12 14 12 -9z m-874 -7 c-6 -3 -9
-10 -6 -15 4 -7 2 -8 -5 -4 -9 6 -9 11 0 22 6 8 15 12 18 8 3 -4 0 -9 -7 -11z
m833 -12 c-3 -6 -11 -11 -16 -11 -5 0 -4 6 3 14 14 16 24 13 13 -3z m769 3 c3
-8 2 -12 -4 -9 -6 3 -10 10 -10 16 0 14 7 11 14 -7z m-2110 -3 c4 -5 0 -12 -6
-15 -7 -4 -3 -4 10 -2 12 2 20 0 16 -5 -11 -18 -43 -10 -41 11 1 21 12 26 21
11z m60 -6 c3 -8 1 -15 -4 -15 -6 0 -10 7 -10 15 0 8 2 15 4 15 2 0 6 -7 10
-15z m22 -28 c-13 -11 -15 -17 -6 -14 23 6 46 -21 31 -36 -10 -9 -12 -9 -9 2
2 7 -3 16 -10 18 -8 3 -10 -1 -6 -11 4 -10 1 -16 -7 -16 -11 0 -11 -2 1 -9 8
-6 19 -7 25 -3 5 3 4 -2 -4 -11 -11 -14 -11 -17 0 -17 11 0 11 -2 -1 -10 -11
-8 -8 -9 12 -4 l27 6 -15 -30 c-16 -34 -44 -34 -44 -1 0 31 -44 18 -45 -13 0
-18 -15 -18 -15 0 0 12 -5 22 -11 22 -5 0 -7 5 -4 11 4 5 -1 19 -11 30 -13 14
-14 19 -4 19 11 0 11 3 2 12 -8 8 -19 3 -42 -22 -16 -17 -30 -37 -30 -43 0 -6
-3 -8 -6 -5 -7 8 15 49 35 66 9 8 10 11 4 7 -7 -3 -13 -1 -13 4 0 6 7 11 16
11 8 0 12 5 9 10 -11 18 10 10 28 -10 20 -23 37 -26 37 -6 0 20 -17 29 -23 14
-3 -8 -6 -5 -6 6 -1 14 4 17 22 14 21 -4 50 15 53 34 1 5 2 10 3 13 0 3 7 0
14 -7 12 -10 10 -15 -7 -31z m471 6 c3 -7 -3 -9 -16 -6 -12 3 -21 10 -21 15 0
13 32 6 37 -9z m794 -22 c-10 -10 -22 -17 -25 -14 -2 3 5 15 17 27 12 13 23
19 25 15 2 -4 -6 -17 -17 -28z m59 35 c0 -2 -7 -6 -15 -10 -8 -3 -15 -1 -15 4
0 6 7 10 15 10 8 0 15 -2 15 -4z m-1260 -16 c0 -5 -2 -10 -4 -10 -3 0 -8 5
-11 10 -3 6 -1 10 4 10 6 0 11 -4 11 -10z m512 -21 c5 -3 3 -11 -4 -17 -10 -8
-13 -3 -15 21 0 18 1 25 4 17 3 -8 10 -18 15 -21z m1448 21 c0 -5 -4 -10 -10
-10 -5 0 -10 5 -10 10 0 6 5 10 10 10 6 0 10 -4 10 -10z m-1492 -14 c-10 -7
-18 -25 -18 -39 0 -29 -15 -43 -26 -25 -4 6 -2 14 4 16 7 2 12 8 12 13 0 6 -4
8 -9 4 -5 -3 -12 -1 -16 5 -3 5 -1 10 5 10 6 0 18 7 26 15 9 8 21 15 27 15 7
0 4 -7 -5 -14z m812 -25 c-1 -17 -18 -33 -24 -22 -4 6 -2 11 5 11 8 0 8 4 -1
15 -11 13 -10 14 4 9 9 -3 16 -9 16 -13z m680 9 c0 -5 -5 -10 -11 -10 -5 0 -7
5 -4 10 3 6 8 10 11 10 2 0 4 -4 4 -10z m-722 -27 c0 -15 -7 -33 -14 -41 -8
-7 -12 -18 -9 -23 4 -5 2 -9 -4 -9 -5 0 -13 5 -16 10 -3 6 -2 10 4 10 6 0 8 7
4 15 -3 10 -1 15 7 13 7 -2 15 3 18 11 3 10 0 11 -9 5 -11 -6 -12 -5 -2 8 7 8
10 18 6 21 -3 4 -2 7 4 7 6 0 11 -12 11 -27z m-1148 9 c0 -5 -7 -9 -15 -9 -8
0 -15 4 -15 9 0 4 7 8 15 8 8 0 15 -4 15 -8z m1918 -14 c-8 -12 -21 -24 -29
-26 -8 -2 -6 2 4 8 9 6 17 18 17 25 0 8 5 15 11 15 7 0 6 -8 -3 -22z m-1518
-16 c0 -8 6 -12 15 -8 19 7 19 -8 0 -24 -9 -7 -13 -15 -10 -18 3 -3 0 -10 -5
-17 -6 -8 -5 -18 5 -31 13 -16 14 -16 9 -1 -5 13 -1 17 15 17 25 0 26 -7 4
-32 -16 -18 -49 -26 -38 -9 3 6 -4 15 -16 22 -15 8 -18 13 -10 19 9 5 9 9 -3
13 -9 4 -16 11 -16 17 0 6 5 8 10 5 6 -3 10 -1 10 4 0 6 9 11 21 11 11 0 18 4
15 9 -3 5 -14 8 -24 6 -9 -1 -11 0 -4 2 9 3 10 8 3 17 -8 9 -7 13 4 13 8 0 15
-7 15 -15z m-440 -7 c0 -20 -28 -31 -42 -17 -9 9 -6 10 10 7 14 -2 22 1 22 11
0 8 2 14 5 14 3 0 5 -7 5 -15z m1237 -7 c-3 -8 -6 -5 -6 6 -1 11 2 17 5 13 3
-3 4 -12 1 -19z m-1190 -10 c-3 -8 -6 -5 -6 6 -1 11 2 17 5 13 3 -3 4 -12 1
-19z m-261 -15 c-3 -7 2 -20 11 -28 21 -22 12 -28 -15 -9 -12 8 -19 21 -16 27
5 8 3 8 -7 0 -19 -19 -31 -16 -18 5 13 20 52 25 45 5z m300 -9 c-4 -9 -9 -15
-11 -12 -3 3 -3 13 1 22 4 9 9 15 11 12 3 -3 3 -13 -1 -22z m1147 -8 c4 4 7 4
7 1 0 -3 -10 -11 -21 -18 -15 -8 -19 -8 -15 0 4 6 3 11 -2 11 -6 0 -8 10 -5
21 l6 21 12 -21 c6 -12 14 -18 18 -15z m827 20 c0 -3 -4 -8 -10 -11 -5 -3 -10
-1 -10 4 0 6 5 11 10 11 6 0 10 -2 10 -4z m-2112 -41 c-3 -3 -9 2 -12 12 -6
14 -5 15 5 6 7 -7 10 -15 7 -18z m-233 5 c3 -5 -1 -10 -10 -10 -9 0 -13 5 -10
10 3 6 8 10 10 10 2 0 7 -4 10 -10z m295 0 c0 -5 -4 -10 -10 -10 -5 0 -10 5
-10 10 0 6 5 10 10 10 6 0 10 -4 10 -10z m-257 -24 c-4 -20 -8 -22 -18 -13
-10 9 -9 14 4 24 9 7 17 13 17 13 1 0 -1 -11 -3 -24z m117 14 c0 -15 -33 -50
-42 -44 -4 3 -8 0 -8 -6 0 -6 -4 -9 -9 -5 -5 3 -17 -5 -25 -17 -12 -17 -13
-25 -3 -37 10 -14 10 -14 -4 -3 -17 13 -15 52 2 52 5 0 9 9 9 20 0 17 5 19 24
14 19 -4 26 -1 31 15 6 21 25 29 25 11z m1390 -17 c0 -10 -4 -14 -8 -8 -4 6
-11 13 -16 18 -5 4 -2 7 7 7 10 0 17 -8 17 -17z m-1270 3 c0 -11 -13 -36 -19
-36 -4 0 -7 9 -7 20 0 11 6 20 13 20 7 0 13 -2 13 -4z m1195 -5 c-3 -5 -1 -12
5 -16 5 -3 10 -11 10 -16 0 -6 -7 -4 -15 5 -17 17 -20 36 -4 36 5 0 8 -4 4 -9z
m36 -18 c2 -36 2 -34 -7 -58 -6 -16 -5 -18 7 -9 8 7 22 8 34 3 17 -7 17 -8 -7
-8 -16 -1 -28 -5 -28 -9 0 -5 -7 -9 -15 -9 -8 0 -15 5 -15 11 0 6 -5 4 -11 -4
-9 -13 -10 -13 -6 0 2 8 9 14 15 13 14 -3 25 50 17 77 -4 11 -2 20 4 20 6 0
12 -12 12 -27z m-1448 2 c-3 -9 -8 -14 -10 -11 -3 3 -2 9 2 15 9 16 15 13 8
-4z m153 6 c-4 -5 -1 -11 6 -13 8 -3 7 -6 -3 -10 -10 -4 -15 1 -16 13 -1 10 3
19 8 19 6 0 8 -4 5 -9z m954 -1 c0 -5 -5 -10 -11 -10 -5 0 -7 5 -4 10 3 6 8
10 11 10 2 0 4 -4 4 -10z m-980 -8 c0 -4 -6 -14 -12 -21 -11 -11 -6 -12 23 -9
26 3 35 0 32 -9 -3 -6 -11 -9 -19 -6 -8 3 -14 0 -14 -6 0 -6 8 -11 17 -11 14
0 13 -3 -5 -16 -14 -10 -21 -22 -17 -31 4 -13 3 -14 -10 -3 -8 7 -15 20 -15
29 0 14 2 14 10 1 6 -9 10 -10 10 -3 0 6 -5 15 -11 19 -8 4 -7 9 2 15 10 6 8
9 -9 9 -13 0 -20 -4 -17 -10 8 -13 -8 -13 -22 1 -7 7 -12 6 -17 -6 -4 -10 -2
-14 6 -9 8 5 9 0 5 -15 -5 -22 -5 -22 14 -5 19 17 19 17 15 -7 -3 -13 -5 -27
-5 -30 -2 -12 -71 -16 -72 -4 0 10 -17 -23 -18 -37 -1 -5 8 -8 19 -8 14 0 20
-7 20 -24 0 -31 30 -44 37 -15 4 15 12 20 28 17 18 -4 21 -1 17 14 -3 14 -8
16 -17 8 -11 -9 -13 -5 -11 15 4 33 12 41 29 26 8 -6 21 -9 29 -6 12 5 15 -2
13 -34 -1 -23 -7 -46 -12 -53 -6 -7 -9 -23 -8 -35 1 -13 -4 -23 -10 -23 -13 0
-9 47 5 65 5 6 -1 11 -15 11 -13 1 -26 -5 -29 -13 -3 -8 -2 -11 3 -8 5 3 12 1
16 -5 3 -5 2 -10 -4 -10 -6 0 -8 -7 -5 -15 4 -8 1 -15 -5 -15 -6 0 -12 8 -12
18 -1 15 -2 16 -6 0 -5 -20 -33 -13 -33 8 0 7 -12 17 -27 20 -25 7 -25 8 -8
20 18 13 18 14 -3 14 -18 0 -22 6 -22 35 0 19 -4 35 -9 35 -5 0 -7 -10 -5 -22
4 -21 4 -21 -4 -3 -6 14 -4 27 6 43 18 27 22 28 15 3 -4 -14 1 -18 20 -18 19
0 23 4 20 18 -3 10 1 32 8 49 11 25 18 30 37 25 20 -5 27 3 23 28 0 4 6 7 14
7 8 0 15 -4 15 -8z m2071 -7 c11 6 11 5 2 -5 -12 -14 -33 -6 -33 13 0 8 3 7 9
-2 5 -8 14 -10 22 -6z m-2221 -9 c0 -3 -4 -8 -10 -11 -5 -3 -10 -1 -10 4 0 6
5 11 10 11 6 0 10 -2 10 -4z m756 -14 c-10 -2 -22 0 -28 6 -6 6 0 7 19 4 21
-5 23 -7 9 -10z m1421 -4 c-3 -8 -6 -5 -6 6 -1 11 2 17 5 13 3 -3 4 -12 1 -19z
m-1947 -3 c0 -8 -7 -15 -15 -15 -13 0 -14 3 -3 15 16 18 18 18 18 0z m2008
-20 c-6 -14 -13 -23 -16 -20 -3 3 -11 0 -19 -6 -10 -9 -13 -8 -13 5 0 10 4 14
10 11 5 -3 17 3 27 15 23 26 25 25 11 -5z m-1523 5 c-3 -6 1 -13 9 -16 9 -3
13 -10 11 -15 -3 -4 -14 -1 -23 9 -12 11 -14 20 -8 24 15 11 18 10 11 -2z
m-491 -25 c-5 -11 -2 -13 12 -8 12 4 15 3 10 -5 -11 -18 -24 -15 -36 8 -8 16
-8 20 4 20 10 0 13 -6 10 -15z m-29 -15 c3 -5 -1 -10 -10 -10 -9 0 -13 5 -10
10 3 6 8 10 10 10 2 0 7 -4 10 -10z m1355 -5 c0 -6 -9 -11 -20 -12 -11 -1 -20
3 -20 8 0 6 -5 7 -11 4 -6 -5 -4 -12 8 -20 10 -7 15 -16 12 -19 -3 -4 -17 3
-30 14 -19 16 -21 21 -10 29 18 12 71 9 71 -4z m-1205 -5 c3 -5 2 -10 -4 -10
-5 0 -13 5 -16 10 -3 6 -2 10 4 10 5 0 13 -4 16 -10z m55 -4 c0 -3 -4 -8 -10
-11 -5 -3 -10 -1 -10 4 0 6 5 11 10 11 6 0 10 -2 10 -4z m100 -31 c0 -5 -5 -3
-10 5 -5 8 -10 20 -10 25 0 6 5 3 10 -5 5 -8 10 -19 10 -25z m946 20 c-8 -8
-17 -15 -20 -15 -3 0 -3 7 0 15 4 8 13 15 21 15 12 0 12 -2 -1 -15z m-1124
-12 c-6 -2 -10 -9 -6 -14 3 -5 0 -9 -5 -9 -12 0 -14 13 -4 23 3 4 11 7 17 6 6
0 5 -3 -2 -6z m131 -17 c9 -23 9 -23 -25 -31 -24 -6 -27 -4 -23 14 2 12 -1 21
-6 21 -6 0 -7 4 -4 10 10 16 49 6 58 -14z m1097 4 c0 -5 -5 -10 -11 -10 -5 0
-7 5 -4 10 3 6 8 10 11 10 2 0 4 -4 4 -10z m-1457 -7 c-7 -2 -19 -2 -25 0 -7
3 -2 5 12 5 14 0 19 -2 13 -5z m1394 -22 c-4 -20 -1 -33 10 -43 15 -11 16 -11
9 7 l-7 20 18 -20 c26 -27 34 -53 20 -58 -19 -6 -56 23 -50 39 6 17 -8 18 -27
2 -12 -11 -12 -10 -1 4 7 9 12 25 11 35 -4 31 0 43 11 43 7 0 9 -11 6 -29z
m-1143 3 c3 -8 2 -12 -4 -9 -6 3 -10 10 -10 16 0 14 7 11 14 -7z m-254 -19 c0
-33 -15 -33 -16 0 -1 14 2 25 7 25 5 0 9 -11 9 -25z m156 0 c3 -23 -25 -26
-37 -3 -10 18 -9 20 5 15 9 -4 16 -1 16 5 0 15 13 1 16 -17z m229 -6 c-4 -5
-1 -9 5 -9 6 0 10 -6 9 -12 -5 -41 12 -49 43 -21 23 21 24 2 0 -25 l-18 -20
-24 26 c-16 17 -33 26 -47 24 -17 -3 -23 2 -23 16 0 10 10 24 23 29 24 11 41
7 32 -8z m-535 7 c0 -3 -4 -8 -10 -11 -5 -3 -10 -1 -10 4 0 6 5 11 10 11 6 0
10 -2 10 -4z m854 -22 c3 -8 2 -12 -4 -9 -6 3 -10 10 -10 16 0 14 7 11 14 -7z
m-556 -58 c7 -16 10 -31 7 -34 -3 -3 -5 0 -5 6 0 7 -11 12 -24 12 -13 0 -26 7
-30 15 -3 8 -1 15 4 15 5 0 7 12 4 26 -4 25 -4 25 14 7 10 -10 23 -31 30 -47z
m43 55 c-8 -5 -11 -16 -6 -30 4 -15 2 -21 -9 -21 -10 0 -13 6 -9 17 4 11 3 14
-5 9 -7 -4 -12 -1 -12 9 0 9 5 13 10 10 6 -3 10 -1 10 4 0 6 8 11 18 11 13 0
14 -2 3 -9z m59 -1 c0 -14 -28 -19 -33 -6 -3 6 4 13 14 13 10 1 19 -2 19 -7z
m57 -32 c-3 -8 -6 -5 -6 6 -1 11 2 17 5 13 3 -3 4 -12 1 -19z m-401 -38 c15
-14 19 -30 6 -30 -12 0 -32 47 -31 68 1 11 3 10 6 -5 2 -12 11 -27 19 -33z
m24 40 c0 -5 -4 -10 -10 -10 -5 0 -10 5 -10 10 0 6 5 10 10 10 6 0 10 -4 10
-10z m35 -20 c-4 -12 -1 -27 5 -35 6 -8 9 -19 5 -25 -3 -5 -1 -10 5 -10 6 0 4
-8 -5 -17 -16 -15 -16 -18 -1 -28 27 -20 18 -25 -14 -7 -30 17 -42 39 -16 29
8 -3 17 1 20 9 5 12 1 14 -17 8 -12 -4 -26 -12 -30 -18 -5 -7 -7 -3 -5 9 2 11
10 20 19 19 24 -2 38 20 22 34 -10 10 -13 10 -13 0 0 -9 -3 -9 -12 1 -11 11
-10 14 0 18 7 3 18 11 25 19 17 19 19 17 12 -6z m852 14 c-3 -3 -12 -4 -19 -1
-8 3 -5 6 6 6 11 1 17 -2 13 -5z m549 -9 c4 -8 10 -12 15 -9 5 3 9 0 9 -5 0
-6 -9 -11 -21 -11 -12 0 -18 4 -13 11 3 6 0 15 -7 20 -11 7 -11 9 -1 9 7 0 15
-7 18 -15z m123 -2 c-3 -32 1 -44 11 -38 6 3 10 1 10 -4 0 -15 -37 -14 -44 2
-5 10 -7 10 -12 0 -8 -18 -24 -16 -24 2 0 8 9 15 19 15 11 0 23 9 26 20 8 25
17 26 14 3z m-1104 -23 c3 -5 1 -10 -4 -10 -6 0 -11 5 -11 10 0 6 2 10 4 10 3
0 8 -4 11 -10z m1036 -30 c6 0 7 -5 3 -11 -5 -8 -1 -8 14 0 17 9 21 6 32 -20
11 -26 11 -32 -1 -39 -8 -6 -16 -5 -20 2 -4 6 -12 7 -18 4 -6 -4 -11 -2 -11 3
0 10 21 16 42 12 4 0 5 6 2 14 -5 11 -11 12 -30 3 -13 -6 -24 -15 -24 -19 0
-4 -3 -14 -6 -23 -4 -11 -1 -16 10 -16 9 0 16 -6 16 -14 0 -8 5 -18 12 -22 7
-4 8 -3 4 4 -4 7 -2 12 3 12 6 0 11 -5 11 -11 0 -5 5 -7 10 -4 6 3 10 1 10 -4
0 -6 -4 -11 -10 -11 -5 0 -10 -4 -10 -10 0 -5 6 -10 14 -10 8 0 18 -5 22 -11
4 -8 -1 -9 -16 -4 -17 5 -21 4 -15 -6 6 -8 4 -11 -7 -7 -13 5 -14 3 -4 -17 6
-14 16 -21 26 -17 12 4 12 2 3 -8 -6 -7 -9 -19 -6 -28 4 -10 2 -13 -5 -8 -7 4
-12 1 -12 -8 0 -26 -39 -19 -52 9 -9 20 -14 22 -29 14 -13 -7 -19 -6 -19 1 0
6 -4 8 -10 5 -6 -3 -7 1 -4 9 7 19 20 21 27 4 3 -8 6 -6 6 5 1 9 6 17 11 17 6
0 10 5 10 11 0 6 -7 8 -16 5 -14 -5 -15 1 -9 51 4 32 8 68 9 81 0 12 5 22 9
22 5 0 5 5 2 10 -3 6 0 10 7 11 8 0 9 2 2 5 -6 3 -9 16 -5 32 5 25 6 25 9 5 2
-13 8 -23 13 -23z m-1538 -17 c3 -24 2 -43 -2 -43 -4 0 -8 11 -9 25 -1 13 -2
28 -3 32 -2 14 1 36 5 32 2 -2 6 -23 9 -46z m156 41 c17 -4 31 -11 31 -16 0
-6 -7 -8 -15 -4 -11 4 -15 -2 -16 -22 -2 -25 -2 -25 -6 -4 -3 17 -10 23 -23
19 -12 -3 -20 2 -23 14 -6 21 2 23 52 13z m166 -12 c3 -10 0 -12 -10 -8 -10 4
-15 -1 -15 -15 0 -11 -4 -18 -9 -15 -13 8 -1 53 14 53 8 0 17 -7 20 -15z m205
-17 c-9 -22 -7 -25 15 -25 14 0 25 -4 25 -10 0 -5 -8 -6 -17 -3 -13 5 -15 2
-10 -13 7 -18 6 -18 -8 1 -9 11 -21 20 -27 20 -6 0 -13 11 -15 25 -3 24 -3 24
11 5 15 -19 15 -19 16 8 0 16 4 26 10 22 6 -4 6 -15 0 -30z m31 22 c-17 -21 0
-29 21 -10 10 9 18 11 18 5 0 -12 -31 -32 -49 -32 -15 0 -14 23 1 38 16 16 23
15 9 -1z m-661 -7 c0 -5 -5 -10 -11 -10 -5 0 -7 5 -4 10 3 6 8 10 11 10 2 0 4
-4 4 -10z m334 -6 c4 -9 4 -19 2 -21 -8 -8 -26 8 -26 23 0 19 16 18 24 -2z
m246 6 c0 -5 -7 -7 -15 -4 -8 4 -15 8 -15 10 0 2 7 4 15 4 8 0 15 -4 15 -10z
m-223 -22 c-3 -8 -6 -5 -6 6 -1 11 2 17 5 13 3 -3 4 -12 1 -19z m223 -9 c0 -4
-7 -6 -15 -3 -8 4 -15 10 -15 15 0 4 7 6 15 3 8 -4 15 -10 15 -15z m-275 2 c3
-5 1 -12 -5 -16 -5 -3 -10 1 -10 9 0 18 6 21 15 7z m29 -23 c-5 -8 -2 -9 10
-5 10 4 15 3 11 -3 -3 -6 -2 -10 3 -10 6 0 8 -9 5 -20 -8 -31 -21 -33 -15 -3
4 21 2 25 -11 20 -15 -6 -31 16 -20 27 11 11 24 6 17 -6z m370 -13 c-6 -16
-24 -21 -24 -7 0 11 11 22 21 22 5 0 6 -7 3 -15z m-700 -11 c3 -8 2 -12 -4 -9
-6 3 -10 10 -10 16 0 14 7 11 14 -7z m263 8 c7 -4 9 -12 5 -18 -10 -15 -52
-24 -52 -12 0 5 9 12 21 15 16 4 17 8 7 14 -7 5 -8 9 -3 9 6 0 15 -4 22 -8z
m178 -2 c3 -5 1 -10 -4 -10 -6 0 -11 5 -11 10 0 6 2 10 4 10 3 0 8 -4 11 -10z
m-385 -4 c0 -2 -7 -7 -16 -10 -8 -3 -12 -2 -9 4 6 10 25 14 25 6z m67 -18 c-3
-8 -6 -5 -6 6 -1 11 2 17 5 13 3 -3 4 -12 1 -19z m186 8 c4 -10 0 -14 -13 -13
-14 1 -16 4 -8 14 13 16 15 16 21 -1z m78 -24 c-5 -2 -7 -13 -4 -25 4 -18 2
-19 -6 -6 -5 8 -7 26 -4 38 4 17 8 19 14 9 5 -7 4 -14 0 -16z m58 -3 c8 -15 9
-24 2 -33 -6 -7 -8 -16 -5 -19 4 -3 -1 -13 -10 -22 -14 -15 -16 -15 -16 -1 0
9 5 16 11 16 5 0 7 5 3 11 -3 6 0 15 7 20 11 6 11 11 1 21 -9 9 -12 9 -12 0 0
-7 -5 -12 -11 -12 -5 0 -7 5 -4 10 4 6 2 17 -5 25 -9 11 -7 12 7 9 11 -3 25
-14 32 -25z m271 16 c0 -8 -4 -15 -10 -15 -5 0 -10 7 -10 15 0 8 5 15 10 15 6
0 10 -7 10 -15z m-60 -2 c0 -5 -5 -15 -10 -23 -8 -12 -10 -11 -10 8 0 12 5 22
10 22 6 0 10 -3 10 -7z m1041 -16 c-10 -9 -11 -8 -5 6 3 10 9 15 12 12 3 -3 0
-11 -7 -18z m-1521 2 c0 -11 -27 -12 -34 -1 -2 4 4 9 15 9 10 1 19 -2 19 -8z
m370 -3 c-8 -8 -28 -18 -45 -22 -28 -7 -29 -6 -13 9 9 9 23 14 31 11 8 -3 18
-1 22 5 3 6 9 11 13 11 3 0 0 -6 -8 -14z m70 -16 c0 -5 -5 -10 -11 -10 -5 0
-7 5 -4 10 3 6 8 10 11 10 2 0 4 -4 4 -10z m100 0 c0 -5 -4 -10 -10 -10 -5 0
-10 5 -10 10 0 6 5 10 10 10 6 0 10 -4 10 -10z m-387 -15 c4 -8 2 -17 -3 -20
-6 -4 -10 3 -10 14 0 25 6 27 13 6z m1407 -40 c0 -11 -5 -27 -10 -35 -7 -11
-10 -11 -10 -2 0 7 -4 11 -9 7 -5 -3 -12 -1 -16 5 -3 6 3 10 16 10 22 0 22 6
4 55 l-8 20 16 -20 c9 -11 16 -29 17 -40z m-1760 15 c0 -11 -2 -20 -4 -20 -2
0 -6 9 -9 20 -3 11 -1 20 4 20 5 0 9 -9 9 -20z m310 16 c0 -11 -19 -15 -25 -6
-3 5 1 10 9 10 9 0 16 -2 16 -4z m346 -5 c-4 -5 -2 -11 4 -13 6 -2 2 -8 -8
-15 -17 -10 -18 -8 -14 13 2 13 9 24 14 24 5 0 7 -4 4 -9z m74 -1 c0 -5 -7 -7
-15 -4 -8 4 -15 8 -15 10 0 2 7 4 15 4 8 0 15 -4 15 -10z m-170 -10 c0 -5 -5
-10 -11 -10 -5 0 -7 5 -4 10 3 6 8 10 11 10 2 0 4 -4 4 -10z m-393 -22 c-3 -8
-6 -5 -6 6 -1 11 2 17 5 13 3 -3 4 -12 1 -19z m33 12 c0 -5 -4 -10 -10 -10 -5
0 -10 5 -10 10 0 6 5 10 10 10 6 0 10 -4 10 -10z m75 0 c3 -5 1 -10 -4 -10 -6
0 -11 5 -11 10 0 6 2 10 4 10 3 0 8 -4 11 -10z m1317 -22 c-8 -8 -9 -4 -5 13
4 13 8 18 11 10 2 -7 -1 -18 -6 -23z m-1072 12 c0 -5 -4 -10 -10 -10 -5 0 -10
5 -10 10 0 6 5 10 10 10 6 0 10 -4 10 -10z m157 -17 c-18 -43 -47 -58 -47 -25
0 12 3 13 8 5 6 -9 13 -4 26 17 22 38 29 39 13 3z m-187 7 c0 -5 -5 -10 -11
-10 -5 0 -7 5 -4 10 3 6 8 10 11 10 2 0 4 -4 4 -10z m-448 -42 c-7 -7 -12 -8
-12 -2 0 14 12 26 19 19 2 -3 -1 -11 -7 -17z m93 12 c3 -5 1 -10 -4 -10 -6 0
-11 5 -11 10 0 6 2 10 4 10 3 0 8 -4 11 -10z m432 -27 c-3 -10 -5 -4 -5 12 0
17 2 24 5 18 2 -7 2 -21 0 -30z m-99 -11 c2 -7 -1 -12 -8 -12 -6 0 -8 6 -4 13
5 9 4 9 -6 0 -14 -13 -40 -1 -40 17 0 12 53 -4 58 -18z m52 18 c0 -5 -5 -10
-11 -10 -5 0 -7 5 -4 10 3 6 8 10 11 10 2 0 4 -4 4 -10z m-329 -23 c-10 -9
-11 -8 -5 6 3 10 9 15 12 12 3 -3 0 -11 -7 -18z m203 7 c3 -8 2 -12 -4 -9 -6
3 -10 10 -10 16 0 14 7 11 14 -7z m1360 -15 c-3 -5 -10 -7 -15 -3 -5 3 -7 10
-3 15 3 5 10 7 15 3 5 -3 7 -10 3 -15z m-1764 1 c0 -5 -2 -10 -4 -10 -3 0 -8
5 -11 10 -3 6 -1 10 4 10 6 0 11 -4 11 -10z m1650 -16 c0 -8 4 -13 9 -10 4 3
13 -5 19 -18 9 -20 8 -23 -6 -22 -9 0 -22 8 -29 16 -6 8 -15 12 -19 7 -4 -4
-2 -7 4 -7 7 0 12 -6 12 -12 0 -14 -55 -17 -68 -4 -4 4 -2 7 3 6 22 -5 35 1
35 14 0 8 -3 16 -7 19 -5 2 -3 2 4 1 7 -2 15 6 18 17 7 21 25 16 25 -7z m160
1 c0 -8 -2 -15 -4 -15 -2 0 -6 7 -10 15 -3 8 -1 15 4 15 6 0 10 -7 10 -15z
m-1509 -18 c-10 -9 -11 -8 -5 6 3 10 9 15 12 12 3 -3 0 -11 -7 -18z m163 15
c3 -5 -1 -9 -9 -9 -8 0 -12 4 -9 9 3 4 7 8 9 8 2 0 6 -4 9 -8z m31 -2 c3 -5 1
-10 -4 -10 -6 0 -11 5 -11 10 0 6 2 10 4 10 3 0 8 -4 11 -10z m62 -3 c0 -8 -6
-14 -14 -14 -17 0 -17 14 0 20 6 3 12 6 13 6 0 1 1 -5 1 -12z m1153 -32 c0
-14 -2 -25 -4 -25 -2 0 -6 11 -8 25 -3 14 -1 25 3 25 5 0 9 -11 9 -25z m-1670
-5 c0 -5 -4 -10 -10 -10 -5 0 -10 5 -10 10 0 6 5 10 10 10 6 0 10 -4 10 -10z
m343 3 c-7 -2 -19 -2 -25 0 -7 3 -2 5 12 5 14 0 19 -2 13 -5z m67 -19 c0 -2
-8 0 -19 5 -10 6 -22 7 -26 3 -5 -4 -5 -1 -1 6 5 9 12 9 27 2 10 -6 19 -13 19
-16z m1327 4 c-3 -8 -6 -5 -6 6 -1 11 2 17 5 13 3 -3 4 -12 1 -19z m37 6 c3
-8 2 -12 -4 -9 -6 3 -10 10 -10 16 0 14 7 11 14 -7z m-1309 -14 c13 -6 15 -9
5 -9 -8 0 -22 4 -30 9 -18 12 -2 12 25 0z m-208 -22 c-3 -8 -6 -5 -6 6 -1 11
2 17 5 13 3 -3 4 -12 1 -19z m1440 0 c-3 -8 -6 -5 -6 6 -1 11 2 17 5 13 3 -3
4 -12 1 -19z m-1310 -10 c-3 -8 -6 -5 -6 6 -1 11 2 17 5 13 3 -3 4 -12 1 -19z
m-62 2 c3 -5 1 -10 -4 -10 -6 0 -11 5 -11 10 0 6 2 10 4 10 3 0 8 -4 11 -10z
m1260 0 c3 -6 -1 -7 -9 -4 -18 7 -21 14 -7 14 6 0 13 -4 16 -10z m-1635 -14
c0 -3 -4 -8 -10 -11 -5 -3 -10 -1 -10 4 0 6 5 11 10 11 6 0 10 -2 10 -4z m83
-13 c-3 -7 -6 -13 -8 -13 -2 0 -5 6 -8 13 -3 8 1 14 8 14 7 0 11 -6 8 -14z
m427 13 c0 -9 -30 -14 -35 -6 -4 6 3 10 14 10 12 0 21 -2 21 -4z m-120 -10 c0
-3 -4 -8 -10 -11 -5 -3 -10 -1 -10 4 0 6 5 11 10 11 6 0 10 -2 10 -4z m40 -22
c0 -8 -4 -12 -10 -9 -5 3 -10 13 -10 21 0 8 5 12 10 9 6 -3 10 -13 10 -21z
m53 3 c9 -3 17 -2 17 3 0 6 5 10 11 10 8 0 8 -5 -1 -15 -7 -8 -23 -15 -36 -15
-13 0 -24 -4 -24 -9 0 -5 -6 -11 -13 -14 -10 -4 -10 3 2 28 9 18 18 29 21 25
3 -3 13 -9 23 -13z m3296 9 c-8 -8 -79 -35 -79 -30 0 6 60 33 74 34 5 0 7 -2
5 -4z m-2004 -16 c3 -5 1 -10 -4 -10 -6 0 -11 5 -11 10 0 6 2 10 4 10 3 0 8
-4 11 -10z m-1891 -42 c3 -13 2 -26 -3 -31 -4 -4 -8 -2 -8 5 0 7 -4 21 -8 31
-4 9 -3 17 3 17 5 0 12 -10 16 -22z m446 7 c0 -8 -2 -15 -4 -15 -2 0 -6 7 -10
15 -3 8 -1 15 4 15 6 0 10 -7 10 -15z m150 11 c0 -3 -4 -8 -10 -11 -5 -3 -10
-1 -10 4 0 6 5 11 10 11 6 0 10 -2 10 -4z m3170 -10 c0 -2 -9 -6 -20 -9 -11
-3 -18 -1 -14 4 5 9 34 13 34 5z m99 -110 c-5 -6 -8 18 -8 55 l2 64 7 -55 c4
-30 3 -59 -1 -64z m-3295 95 c3 -5 -1 -11 -9 -14 -9 -4 -12 -1 -8 9 6 16 10
17 17 5z m28 -13 c-9 -9 -9 -15 0 -25 9 -11 8 -13 -3 -11 -8 2 -17 7 -21 12
-7 10 12 35 27 36 5 0 4 -5 -3 -12z m3305 -20 c-3 -7 -5 -2 -5 12 0 14 2 19 5
13 2 -7 2 -19 0 -25z m-3837 7 c0 -20 -25 -25 -37 -7 -8 14 -6 17 13 18 14 1
24 -4 24 -11z m37 -7 c-3 -8 -6 -5 -6 6 -1 11 2 17 5 13 3 -3 4 -12 1 -19z
m-119 -23 c9 -18 7 -21 -10 -22 -14 -1 -18 3 -14 13 3 9 6 21 6 26 0 14 4 10
18 -17z m151 -18 c0 -21 -1 -21 -9 -2 -12 28 -12 37 0 30 6 -3 10 -16 9 -28z
m1827 18 c-3 -9 0 -15 9 -15 8 0 15 -7 15 -17 0 -14 -2 -15 -17 -1 -10 9 -25
18 -33 21 -12 4 -11 6 3 6 9 1 17 6 17 11 0 6 3 10 6 10 3 0 4 -7 0 -15z
m1609 6 c-12 -11 -91 -33 -80 -23 3 4 23 12 43 18 49 16 47 15 37 5z m132 -13
c-3 -8 -6 -5 -6 6 -1 11 2 17 5 13 3 -3 4 -12 1 -19z m-28 -30 c1 -23 4 -46 7
-52 3 -6 -1 -3 -9 7 -15 18 -21 87 -8 87 4 0 8 -19 10 -42z m-3087 7 c-2 -14
-6 -25 -8 -25 -2 0 -4 11 -4 25 0 14 4 25 9 25 4 0 6 -11 3 -25z m108 5 c0 -5
-4 -10 -10 -10 -5 0 -10 5 -10 10 0 6 5 10 10 10 6 0 10 -4 10 -10z m2779 -4
c-2 -2 -17 -6 -34 -9 l-30 -6 30 13 c26 12 47 13 34 2z m136 -51 c-3 -31 -9
-55 -11 -52 -3 2 -2 30 2 61 4 31 9 54 12 52 2 -3 1 -30 -3 -61z m-3502 40
c-3 -9 -8 -14 -10 -11 -3 3 -2 9 2 15 9 16 15 13 8 -4z m546 9 c-18 -5 -29
-33 -29 -76 0 -16 -4 -28 -8 -28 -5 0 -6 20 -2 44 5 34 4 43 -7 39 -7 -3 -13
1 -13 9 0 9 13 14 38 15 20 1 30 -1 21 -3z m1305 -10 c9 -24 7 -28 -9 -14 -17
14 -20 30 -6 30 5 0 12 -7 15 -16z m1953 1 c0 -8 -4 -12 -9 -9 -5 3 -6 10 -3
15 9 13 12 11 12 -6z m-3853 -10 c-4 -8 -8 -15 -10 -15 -2 0 -4 7 -4 15 0 8 4
15 10 15 5 0 7 -7 4 -15z m3486 -44 c0 -33 -3 -62 -7 -64 -5 -3 -7 23 -5 56 2
43 0 57 -7 47 -5 -9 -11 -39 -13 -68 -2 -29 -7 -52 -11 -52 -9 0 2 98 15 123
17 33 28 17 28 -42z m87 7 c-2 -13 -4 -5 -4 17 -1 22 1 32 4 23 2 -10 2 -28 0
-40z m70 30 c-3 -8 -6 -5 -6 6 -1 11 2 17 5 13 3 -3 4 -12 1 -19z m26 -15 c4
-19 2 -33 -3 -33 -6 0 -10 17 -10 37 0 43 5 41 13 -4z m-238 -20 c-4 -27 -13
-59 -21 -73 -12 -23 -13 -19 -12 45 1 67 1 68 7 20 l6 -50 8 53 c4 28 10 52
13 52 4 0 3 -21 -1 -47z m-1515 -28 c-5 -6 -7 -39 -4 -73 2 -35 0 -61 -4 -58
-5 3 -8 -4 -8 -16 1 -12 -4 -23 -11 -25 -11 -4 -10 68 2 87 3 5 1 12 -5 15 -8
5 -7 11 1 21 6 8 9 14 5 14 -3 0 -1 11 4 25 8 21 6 29 -10 42 -11 10 -20 22
-20 28 0 5 13 -3 29 -20 16 -17 25 -34 21 -40z m1283 38 c-7 -2 -21 -2 -30 0
-10 3 -4 5 12 5 17 0 24 -2 18 -5z m304 -60 c-2 -16 -4 -5 -4 22 0 28 2 40 4
28 2 -13 2 -35 0 -50z m90 30 c-3 -10 -5 -4 -5 12 0 17 2 24 5 18 2 -7 2 -21
0 -30z m-450 21 c-3 -3 -12 -4 -19 -1 -8 3 -5 6 6 6 11 1 17 -2 13 -5z m-2560
-26 c-3 -8 -6 -5 -6 6 -1 11 2 17 5 13 3 -3 4 -12 1 -19z m33 7 c11 -13 10
-14 -4 -9 -9 3 -16 10 -16 15 0 13 6 11 20 -6z m1267 -17 c-3 -7 -5 -2 -5 12
0 14 2 19 5 13 2 -7 2 -19 0 -25z m1222 28 c-2 -2 -26 -6 -54 -10 -34 -4 -45
-3 -35 4 14 9 99 15 89 6z m50 -65 c1 -27 -3 -59 -9 -72 -10 -23 -10 -23 -6
-2 2 13 0 26 -5 29 -5 3 -9 11 -9 17 0 7 4 6 11 -3 7 -11 9 -4 5 26 -4 34 -1
54 9 54 1 0 3 -22 4 -49z m26 -26 c-4 -37 -9 -64 -12 -62 -3 3 -2 35 2 72 4
36 10 64 12 61 3 -3 2 -35 -2 -71z m-115 3 c-12 -50 -36 -108 -44 -108 -3 0 2
17 9 38 7 20 19 59 26 85 16 65 24 51 9 -15z m50 2 c3 -80 1 -97 -15 -97 -8 0
-11 5 -8 11 4 6 8 29 10 51 2 33 1 36 -7 15 -4 -14 -11 -38 -15 -55 -4 -16 -9
-25 -12 -19 -2 6 4 37 13 70 9 32 16 65 17 72 1 31 16 -7 17 -48z m1340 50
c12 -8 11 -10 -7 -10 -13 0 -23 5 -23 10 0 13 11 13 30 0z m-1435 -75 l-15
-50 6 54 c5 57 16 88 21 61 2 -8 -4 -37 -12 -65z m-2430 54 c11 -16 1 -19 -13
-3 -7 8 -8 14 -3 14 5 0 13 -5 16 -11z m2379 -27 c-4 -18 -10 -32 -14 -32 -7
0 -5 24 6 59 8 26 14 4 8 -27z m-2945 -33 c-24 -15 -30 -10 -11 9 9 10 19 14
21 9 2 -5 -3 -13 -10 -18z m2902 0 c-5 -13 -10 -19 -10 -12 -1 15 10 45 15 40
3 -2 0 -15 -5 -28z m-2350 -6 c-12 -20 -14 -14 -5 12 4 9 9 14 11 11 3 -2 0
-13 -6 -23z m-560 -58 c5 4 9 -1 9 -9 0 -9 3 -15 8 -15 19 3 33 -2 27 -11 -9
-15 -55 -12 -55 4 0 7 -7 19 -15 26 -8 7 -15 17 -15 22 0 5 7 2 16 -6 8 -9 20
-14 25 -11z m4519 5 c0 -5 -7 -7 -15 -4 -8 4 -12 10 -9 15 6 11 24 2 24 -11z
m85 11 c16 -7 14 -9 -16 -12 -43 -5 -61 -1 -53 12 6 11 41 11 69 0z m-4025
-20 c0 -4 -11 -6 -25 -3 -14 2 -25 6 -25 8 0 2 11 4 25 4 14 0 25 -4 25 -9z
m4395 -1 c3 -5 1 -10 -4 -10 -6 0 -11 5 -11 10 0 6 2 10 4 10 3 0 8 -4 11 -10z
m440 0 c3 -5 -1 -10 -9 -10 -8 0 -18 5 -21 10 -3 6 1 10 9 10 8 0 18 -4 21
-10z m-4805 -15 c0 -8 -4 -15 -10 -15 -5 0 -10 7 -10 15 0 8 5 15 10 15 6 0
10 -7 10 -15z m1330 -9 c0 -3 -4 -8 -10 -11 -5 -3 -10 -1 -10 4 0 6 5 11 10
11 6 0 10 -2 10 -4z m-1960 -36 c0 -5 -5 -10 -11 -10 -5 0 -7 5 -4 10 3 6 8
10 11 10 2 0 4 -4 4 -10z m2695 0 c3 -5 1 -10 -4 -10 -6 0 -11 5 -11 10 0 6 2
10 4 10 3 0 8 -4 11 -10z m-2065 -14 c0 -11 -19 -15 -25 -6 -3 5 1 10 9 10 9
0 16 -2 16 -4z m40 -21 c0 -9 -6 -12 -15 -9 -8 4 -12 10 -9 15 8 14 24 10 24
-6z m-660 -39 c0 -5 -7 -1 -16 10 -14 18 -15 18 -9 -6 5 -22 4 -23 -5 -7 -7
10 -9 26 -5 35 6 15 8 15 21 -2 8 -11 14 -24 14 -30z m695 -35 c-6 -5 -25 10
-25 20 0 5 6 4 14 -3 8 -7 12 -15 11 -17z m945 19 c0 -5 -4 -10 -10 -10 -5 0
-10 5 -10 10 0 6 5 10 10 10 6 0 10 -4 10 -10z m308 -41 c-3 -20 -5 -19 -9 9
-3 20 -2 29 4 23 5 -5 7 -19 5 -32z m-18 -5 c0 -2 -7 -4 -15 -4 -8 0 -15 4
-15 10 0 5 7 7 15 4 8 -4 15 -8 15 -10z m-1887 -69 c-3 -9 -8 -14 -10 -11 -3
3 -2 9 2 15 9 16 15 13 8 -4z m1888 -10 c16 10 10 -4 -11 -25 -20 -20 -20 -20
-16 13 6 42 7 45 13 24 2 -9 9 -15 14 -12z m-1927 -24 c3 -5 -3 -11 -15 -14
-16 -4 -18 -3 -8 9 13 16 16 17 23 5z"/>
<path d="M1180 1616 c0 -8 4 -17 9 -20 10 -7 23 19 14 28 -11 11 -23 6 -23 -8z"/>
<path d="M1145 1580 c3 -5 12 -7 20 -3 21 7 19 13 -6 13 -11 0 -18 -4 -14 -10z"/>
<path d="M1182 1571 c-11 -7 -11 -9 0 -13 18 -7 39 2 32 13 -6 11 -15 11 -32
0z"/>
<path d="M1230 1520 c0 -5 5 -10 11 -10 5 0 7 5 4 10 -3 6 -8 10 -11 10 -2 0
-4 -4 -4 -10z"/>
<path d="M1247 1303 c-3 -5 -2 -15 2 -22 5 -7 11 -9 14 -4 3 5 2 15 -2 22 -5
7 -11 9 -14 4z"/>
<path d="M1515 1310 c3 -5 8 -10 11 -10 2 0 4 5 4 10 0 6 -5 10 -11 10 -5 0
-7 -4 -4 -10z"/>
<path d="M1520 1250 c0 -5 7 -10 15 -10 8 0 15 5 15 10 0 6 -7 10 -15 10 -8 0
-15 -4 -15 -10z"/>
<path d="M1297 1215 c-8 -20 -4 -29 11 -24 5 2 6 13 2 23 -6 19 -7 19 -13 1z"/>
<path d="M2587 1033 c4 -11 3 -14 -6 -9 -9 6 -9 3 1 -13 14 -22 28 -28 28 -11
0 6 -4 10 -9 10 -5 0 -7 9 -4 20 3 11 0 20 -6 20 -6 0 -8 -7 -4 -17z"/>
<path d="M2570 991 c0 -6 4 -13 10 -16 6 -3 7 1 4 9 -7 18 -14 21 -14 7z"/>
<path d="M2603 899 c6 -9 17 -15 24 -12 21 8 15 20 -11 25 -21 4 -23 3 -13
-13z"/>
<path d="M4130 4721 c0 -6 4 -13 10 -16 6 -3 7 1 4 9 -7 18 -14 21 -14 7z"/>
<path d="M4646 4634 c-4 -9 -4 -19 -1 -22 6 -6 35 18 35 29 0 16 -28 10 -34
-7z"/>
<path d="M4206 4565 c4 -8 8 -15 10 -15 2 0 4 7 4 15 0 8 -4 15 -10 15 -5 0
-7 -7 -4 -15z"/>
<path d="M4080 4341 c0 -6 4 -12 8 -15 5 -3 9 1 9 9 0 8 -4 15 -9 15 -4 0 -8
-4 -8 -9z"/>
<path d="M4101 4241 c-1 -7 -7 -11 -16 -7 -17 6 -19 -2 -6 -23 5 -7 14 -11 20
-7 6 4 9 1 5 -7 -3 -8 2 -17 10 -20 11 -5 15 -1 12 11 -5 28 -25 68 -25 53z"/>
<path d="M3960 4062 c0 -12 19 -26 26 -19 2 2 -2 10 -11 17 -9 8 -15 8 -15 2z"/>
<path d="M3765 3780 c4 -6 11 -8 16 -5 14 9 11 15 -7 15 -8 0 -12 -5 -9 -10z"/>
<path d="M2511 3624 c0 -11 3 -14 6 -6 3 7 2 16 -1 19 -3 4 -6 -2 -5 -13z"/>
<path d="M2445 3611 c3 -5 0 -13 -6 -17 -6 -3 -15 0 -20 7 -6 10 -9 8 -9 -9 0
-20 2 -22 23 -11 20 11 21 11 8 -4 -8 -10 -9 -17 -3 -17 6 0 17 14 26 30 14
28 13 30 -5 30 -11 0 -18 -4 -14 -9z"/>
<path d="M2482 3594 c-7 -7 -12 -19 -12 -26 0 -7 6 -4 12 6 11 19 11 19 24 1
8 -11 14 -13 14 -6 0 7 -6 18 -13 25 -10 11 -15 11 -25 0z"/>
<path d="M2560 3584 c0 -28 10 -36 26 -19 17 16 18 29 3 19 -6 -3 -15 0 -20 7
-7 11 -9 9 -9 -7z"/>
<path d="M2355 3569 c-4 -6 -5 -12 -2 -15 2 -3 7 2 10 11 7 17 1 20 -8 4z"/>
<path d="M2731 3564 c0 -11 3 -14 6 -6 3 7 2 16 -1 19 -3 4 -6 -2 -5 -13z"/>
<path d="M2390 3550 c-1 -23 -2 -24 -11 -5 -8 17 -8 16 -4 -7 4 -23 1 -27 -24
-33 -15 -3 -33 -16 -39 -28 -6 -12 -11 -16 -11 -9 -1 6 -8 12 -17 12 -8 0 -12
-4 -9 -10 3 -5 -1 -10 -9 -10 -9 0 -27 -18 -40 -39 -14 -22 -30 -42 -36 -46
-5 -3 -10 -11 -10 -16 0 -5 10 -1 22 11 30 27 44 25 53 -7 10 -38 14 -88 6
-75 -9 15 -40 -10 -41 -34 0 -10 -1 -34 -3 -53 -2 -29 1 -34 21 -36 12 -1 22
2 22 7 0 5 11 13 25 18 14 5 28 17 32 26 5 13 7 13 14 2 7 -10 9 -10 9 0 0 6
6 12 14 12 7 0 19 7 26 15 9 10 9 15 1 15 -6 0 -11 -4 -11 -10 0 -5 -5 -10
-11 -10 -5 0 -8 4 -5 9 3 5 -1 11 -9 15 -8 3 -15 16 -14 28 l0 23 9 -22 c5
-13 12 -23 15 -23 4 0 3 5 0 10 -9 15 4 12 21 -5 9 -8 20 -15 25 -15 15 0 10
17 -6 24 -19 7 -20 36 -1 36 7 0 16 -8 18 -18 3 -10 13 -19 22 -19 14 0 14 2
1 17 -21 23 -19 44 3 35 14 -5 15 -4 5 6 -10 10 -16 10 -25 1 -16 -16 -28 -15
-28 3 0 8 4 15 9 15 5 0 13 9 16 20 7 21 45 28 45 8 0 -7 7 -2 16 10 8 12 20
22 26 22 7 0 4 -6 -6 -13 -17 -12 -17 -14 -2 -20 9 -4 16 -1 17 6 1 7 5 1 10
-13 8 -24 8 -24 6 5 -2 24 2 31 21 33 19 3 21 6 11 18 -16 19 -4 18 15 -2 14
-13 16 -13 16 -1 0 9 -6 17 -12 20 -10 3 -10 9 -1 25 10 17 10 20 -1 16 -7 -3
-16 2 -20 11 -3 10 -12 15 -21 11 -8 -3 -15 -1 -15 5 0 6 -6 16 -13 23 -10 11
-15 10 -25 -1 -10 -10 -10 -13 3 -13 8 0 15 -3 15 -6 0 -13 -22 -44 -32 -44
-7 0 -7 4 0 13 7 8 6 16 -3 24 -11 10 -15 10 -19 0 -3 -9 -7 -8 -15 3 -10 13
-12 13 -21 0 -13 -20 -13 -43 0 -35 6 3 10 0 10 -7 0 -10 3 -9 10 2 5 8 12 11
16 7 4 -4 -1 -16 -12 -28 -10 -12 -18 -23 -16 -25 8 -13 -1 -24 -20 -24 -21 1
-21 2 -5 11 25 14 23 53 -2 46 -11 -3 -22 1 -25 9 -3 8 0 11 10 7 10 -4 15 -1
13 8 -1 8 1 22 5 31 4 9 6 25 3 35 -3 13 -5 11 -7 -7z m170 -71 c0 -6 -4 -7
-10 -4 -5 3 -10 1 -10 -4 0 -6 -5 -11 -10 -11 -6 0 -5 8 2 19 12 19 28 19 28
0z m-216 -13 c-6 -16 -24 -23 -24 -8 0 10 22 33 27 28 2 -2 1 -11 -3 -20z
m136 -23 c0 -15 -2 -16 -10 -3 -8 12 -10 10 -10 -8 0 -13 -4 -21 -9 -18 -13 9
-1 46 15 46 8 0 14 -8 14 -17z m-216 -7 c-10 -8 -15 -18 -11 -22 4 -5 11 -3
15 3 5 7 12 6 22 -5 13 -14 12 -15 -3 -9 -9 3 -17 2 -17 -3 0 -6 -8 -5 -19 2
-15 9 -17 16 -10 30 5 10 17 18 26 18 14 0 14 -2 -3 -14z m119 -71 c-9 -15
-11 -15 -23 0 -11 13 -10 14 5 8 15 -5 17 -3 11 13 -5 14 -4 16 4 7 8 -7 9
-17 3 -28z m-43 -32 c0 -10 -4 -14 -8 -8 -4 6 -11 13 -16 18 -5 4 -2 7 7 7 10
0 17 -8 17 -17z m-29 -86 c-8 -8 -11 -3 -11 19 1 25 2 27 11 11 8 -14 8 -22 0
-30z m-16 -37 c-3 -5 -14 -10 -23 -10 -15 0 -15 2 -2 10 20 13 33 13 25 0z"/>
<path d="M2546 3547 c3 -10 9 -15 12 -12 3 3 0 11 -7 18 -10 9 -11 8 -5 -6z"/>
<path d="M2588 3546 c-10 -7 -15 -16 -12 -19 4 -3 13 1 21 9 20 19 13 26 -9
10z"/>
<path d="M2613 3533 c-15 -32 -9 -44 7 -14 6 12 17 21 25 21 8 0 15 5 15 10 0
21 -36 9 -47 -17z"/>
<path d="M2259 3530 c-13 -10 -20 -19 -16 -20 4 0 17 9 29 20 28 26 17 26 -13
0z"/>
<path d="M2705 3530 c26 -11 35 -12 35 -2 0 4 -12 8 -27 9 -24 1 -25 1 -8 -7z"/>
<path d="M2756 3513 c9 -36 26 -56 20 -23 -2 14 -5 27 -6 30 -2 3 -2 8 -1 13
0 4 -4 7 -9 7 -6 0 -8 -11 -4 -27z"/>
<path d="M2297 3509 c4 -16 8 -17 14 -7 13 19 11 28 -5 28 -9 0 -12 -7 -9 -21z"/>
<path d="M2335 3520 c-3 -5 -1 -10 4 -10 6 0 11 5 11 10 0 6 -2 10 -4 10 -3 0
-8 -4 -11 -10z"/>
<path d="M2620 3490 c0 -5 5 -10 10 -10 6 0 10 5 10 10 0 6 -4 10 -10 10 -5 0
-10 -4 -10 -10z"/>
<path d="M2220 3475 c0 -8 2 -15 4 -15 2 0 6 7 10 15 3 8 1 15 -4 15 -6 0 -10
-7 -10 -15z"/>
<path d="M2640 3439 c0 -5 5 -7 10 -4 6 3 10 8 10 11 0 2 -4 4 -10 4 -5 0 -10
-5 -10 -11z"/>
<path d="M2430 3374 c0 -8 5 -12 10 -9 6 3 10 10 10 16 0 5 -4 9 -10 9 -5 0
-10 -7 -10 -16z"/>
<path d="M2231 3363 c-1 -12 -7 -24 -13 -26 -8 -4 -7 -6 4 -6 11 -1 15 -8 12
-23 l-5 -23 12 22 c8 15 8 29 1 50 -9 24 -11 25 -11 6z"/>
<path d="M2555 3370 c3 -5 8 -10 11 -10 2 0 4 5 4 10 0 6 -5 10 -11 10 -5 0
-7 -4 -4 -10z"/>
<path d="M2666 3357 c3 -10 9 -15 12 -12 3 3 0 11 -7 18 -10 9 -11 8 -5 -6z"/>
<path d="M2460 3356 c0 -2 11 -6 25 -8 14 -3 25 -1 25 3 0 5 -11 9 -25 9 -14
0 -25 -2 -25 -4z"/>
<path d="M2640 3351 c0 -6 4 -13 10 -16 6 -3 7 1 4 9 -7 18 -14 21 -14 7z"/>
<path d="M2598 3325 c5 -28 14 -31 31 -11 8 10 9 16 1 21 -5 3 -10 -2 -11 -12
0 -14 -2 -14 -9 5 -12 29 -18 28 -12 -3z"/>
<path d="M2510 3325 c-8 -9 -8 -15 -2 -15 6 0 13 6 15 13 3 7 6 5 6 -5 1 -10
5 -18 10 -18 5 0 7 9 4 20 -6 24 -16 25 -33 5z"/>
<path d="M2456 3298 c3 -4 9 -8 15 -8 5 0 9 4 9 8 0 5 -7 9 -15 9 -8 0 -12 -4
-9 -9z"/>
<path d="M2587 3285 c10 -13 21 -25 26 -25 12 0 3 24 -13 37 -25 21 -32 14
-13 -12z"/>
<path d="M2520 3283 c0 -7 -7 -10 -17 -6 -12 5 -15 2 -10 -10 5 -14 0 -17 -23
-17 -24 0 -28 -3 -23 -17 4 -11 8 -12 11 -5 5 16 42 15 43 0 0 -7 4 -4 8 6 6
16 9 17 13 4 4 -8 -4 -26 -16 -39 -15 -17 -21 -31 -16 -44 6 -18 7 -18 12 3 5
20 9 21 33 12 23 -9 26 -8 21 5 -3 8 -9 22 -12 30 -3 8 -2 15 4 15 5 0 12 9
15 21 3 12 10 18 16 14 6 -3 11 1 11 10 0 9 -4 13 -10 10 -5 -3 -10 -1 -10 4
0 6 -4 11 -10 11 -5 0 -10 -8 -10 -17 0 -15 -2 -14 -15 3 -8 10 -15 14 -15 7z
m30 -43 c0 -5 -5 -10 -11 -10 -5 0 -7 5 -4 10 3 6 8 10 11 10 2 0 4 -4 4 -10z"/>
<path d="M2581 3229 c-1 -9 7 -23 17 -30 15 -12 16 -12 6 1 -6 8 -14 22 -17
30 -5 13 -6 12 -6 -1z"/>
<path d="M2461 3213 c-7 -8 -11 -16 -8 -19 6 -7 37 7 37 16 0 16 -15 18 -29 3z"/>
<path d="M2270 3160 c0 -5 5 -10 10 -10 6 0 10 5 10 10 0 6 -4 10 -10 10 -5 0
-10 -4 -10 -10z"/>
<path d="M2446 3155 c-3 -8 -1 -15 5 -15 6 0 8 -4 5 -9 -3 -5 3 -20 14 -32 11
-13 19 -19 20 -12 0 6 -5 15 -10 18 -6 4 -8 15 -5 24 7 24 -20 48 -29 26z"/>
<path d="M2528 3138 c-7 -17 1 -38 13 -38 6 0 7 5 4 10 -3 6 -2 10 4 10 6 0 8
7 5 15 -7 18 -20 19 -26 3z"/>
<path d="M2572 3130 c0 -14 2 -19 5 -12 2 6 2 18 0 25 -3 6 -5 1 -5 -13z"/>
<path d="M2595 3130 c-3 -5 -1 -10 4 -10 6 0 11 5 11 10 0 6 -2 10 -4 10 -3 0
-8 -4 -11 -10z"/>
<path d="M2490 3120 c0 -5 5 -10 10 -10 6 0 10 5 10 10 0 6 -4 10 -10 10 -5 0
-10 -4 -10 -10z"/>
<path d="M2647 3093 c10 -18 20 -28 22 -22 2 6 -6 21 -19 33 l-21 21 18 -32z"/>
<path d="M2684 3051 c1 -17 4 -31 9 -31 4 0 7 -4 7 -9 0 -5 -10 -7 -22 -4
l-23 6 22 -22 c12 -11 24 -21 26 -21 8 0 -1 92 -10 101 -7 7 -10 1 -9 -20z"/>
<path d="M2641 3043 c-1 -32 0 -32 19 -16 24 21 25 24 6 17 -8 -3 -16 2 -19
13 -3 10 -5 4 -6 -14z"/>
<path d="M3563 2883 c-48 -33 -10 -90 55 -84 10 1 10 5 -2 17 -19 18 -21 50
-5 60 8 4 7 9 -2 15 -18 11 -20 11 -46 -8z"/>
<path d="M2681 2831 c-7 -5 -10 -14 -7 -20 11 -18 25 -13 23 9 -1 11 -1 20 -2
20 0 0 -6 -4 -14 -9z"/>
<path d="M4340 2803 c0 -4 5 -15 10 -23 8 -13 10 -13 10 2 0 9 -4 20 -10 23
-5 3 -10 3 -10 -2z"/>
<path d="M1707 2656 c-4 -10 2 -20 14 -27 19 -10 20 -9 8 13 -16 31 -16 31
-22 14z"/>
<path d="M1611 2636 c-10 -12 -8 -13 8 -9 12 3 21 9 21 14 0 14 -16 11 -29 -5z"/>
<path d="M1626 2603 c-9 -22 10 -41 26 -25 6 6 8 15 4 19 -4 4 -12 1 -17 -7
-8 -11 -9 -10 -4 8 7 26 0 30 -9 5z"/>
<path d="M1584 2585 c-10 -8 -14 -15 -7 -15 6 0 19 -7 27 -16 9 -8 16 -11 16
-5 0 5 -5 13 -11 16 -6 4 -8 13 -5 21 7 18 4 18 -20 -1z"/>
<path d="M1504 2547 c-10 -12 -12 -16 -4 -9 8 6 21 12 30 12 13 0 13 -2 0 -11
-12 -9 -11 -10 8 -6 21 5 26 -2 23 -30 -3 -20 16 -24 30 -5 13 16 13 16 -5 2
-17 -14 -18 -13 -12 7 5 16 0 26 -22 42 l-29 20 -19 -22z"/>
<path d="M4397 2551 c-4 -17 -3 -21 5 -13 5 5 8 16 6 23 -3 8 -7 3 -11 -10z"/>
<path d="M1438 2498 c-21 -25 -21 -28 -8 -48 8 -12 10 -10 10 10 0 17 9 31 28
42 23 15 24 17 7 18 -11 0 -28 -10 -37 -22z"/>
<path d="M1501 2494 c0 -11 3 -14 6 -6 3 7 2 16 -1 19 -3 4 -6 -2 -5 -13z"/>
<path d="M1530 2489 c0 -5 5 -7 10 -4 6 3 10 8 10 11 0 2 -4 4 -10 4 -5 0 -10
-5 -10 -11z"/>
<path d="M1460 2470 c0 -5 9 -8 20 -7 21 1 18 10 -5 13 -8 1 -15 -2 -15 -6z"/>
<path d="M1393 2450 c-11 -16 -10 -18 2 -14 8 4 15 12 15 20 0 19 -3 18 -17
-6z"/>
<path d="M1473 2443 c-19 -7 -16 -19 6 -19 11 0 17 5 14 13 -3 7 -6 13 -7 12
0 0 -7 -3 -13 -6z"/>
<path d="M1395 2411 c-3 -5 -2 -12 3 -15 5 -3 9 1 9 9 0 17 -3 19 -12 6z"/>
<path d="M1427 2405 c3 -8 9 -12 14 -9 12 7 11 11 -5 17 -10 4 -13 1 -9 -8z"/>
<path d="M1321 2368 c-10 -16 -10 -23 -2 -26 6 -2 11 -11 12 -20 0 -11 2 -13
6 -4 3 7 -1 20 -8 28 -11 14 -10 16 6 14 33 -4 37 -1 21 15 -19 19 -19 19 -35
-7z"/>
<path d="M1275 2360 c-3 -11 -12 -20 -19 -20 -6 0 -12 -10 -13 -22 -2 -22 -1
-22 12 -5 9 13 21 16 41 12 27 -5 28 -5 5 5 -23 10 -23 11 -6 30 16 17 16 20
2 20 -9 0 -19 -9 -22 -20z"/>
<path d="M1466 2354 c-4 -9 -4 -19 -1 -22 2 -3 7 3 11 12 4 9 4 19 1 22 -2 3
-7 -3 -11 -12z"/>
<path d="M1420 2340 c-13 -8 -12 -10 3 -10 9 0 17 5 17 10 0 12 -1 12 -20 0z"/>
<path d="M1355 2330 c-3 -5 -1 -10 4 -10 6 0 11 5 11 10 0 6 -2 10 -4 10 -3 0
-8 -4 -11 -10z"/>
<path d="M1480 2320 c0 -6 -4 -8 -10 -5 -6 3 -10 -4 -9 -17 0 -13 3 -17 6 -10
2 6 10 9 15 6 6 -4 8 -2 4 4 -3 5 -1 12 6 14 9 3 9 6 0 12 -7 4 -12 2 -12 -4z"/>
<path d="M3570 2321 c0 -5 5 -13 10 -16 6 -3 10 -2 10 4 0 5 -4 13 -10 16 -5
3 -10 2 -10 -4z"/>
<path d="M573 2299 c-26 -26 -13 -36 55 -42 113 -9 217 11 145 29 -15 4 -52 8
-82 9 -31 1 -67 6 -81 9 -15 5 -30 2 -37 -5z"/>
<path d="M1266 2295 c-3 -8 -2 -15 3 -15 5 0 14 7 21 15 10 12 10 15 -3 15 -8
0 -17 -7 -21 -15z"/>
<path d="M1358 2304 c-3 -5 -2 -18 2 -28 3 -11 9 -15 12 -10 3 5 2 18 -2 28
-3 11 -9 15 -12 10z"/>
<path d="M1598 2278 c-19 -19 -13 -24 11 -9 7 5 12 13 10 18 -2 5 -12 1 -21
-9z"/>
<path d="M1480 2275 c0 -2 5 -16 12 -30 11 -25 28 -34 28 -15 0 6 -5 10 -11
10 -6 0 -9 6 -6 14 3 8 -1 17 -9 20 -8 3 -14 3 -14 1z"/>
<path d="M1660 2264 c0 -8 5 -12 10 -9 6 3 10 10 10 16 0 5 -4 9 -10 9 -5 0
-10 -7 -10 -16z"/>
<path d="M412 2263 c-16 -6 -5 -23 16 -23 14 0 14 2 3 9 -11 7 -9 10 10 14 18
3 19 4 4 5 -11 0 -26 -2 -33 -5z"/>
<path d="M1203 2256 c-24 -11 -32 -28 -11 -23 14 2 42 27 37 30 -2 2 -14 -2
-26 -7z"/>
<path d="M1417 2256 c-3 -8 0 -16 6 -19 7 -3 13 3 13 14 0 22 -12 25 -19 5z"/>
<path d="M4215 2250 c-15 -17 -16 -20 -3 -20 9 0 19 7 22 16 10 25 1 27 -19 4z"/>
<path d="M155 2250 c-3 -6 1 -7 9 -4 18 7 21 14 7 14 -6 0 -13 -4 -16 -10z"/>
<path d="M365 2250 c-3 -5 -2 -10 4 -10 5 0 13 5 16 10 3 6 2 10 -4 10 -5 0
-13 -4 -16 -10z"/>
<path d="M1376 2245 c-9 -26 -7 -32 5 -12 6 10 9 21 6 23 -2 3 -7 -2 -11 -11z"/>
<path d="M1246 2242 c-3 -6 -1 -14 5 -17 14 -9 20 -2 10 14 -6 8 -11 9 -15 3z"/>
<path d="M1300 2240 c0 -5 5 -10 11 -10 5 0 7 5 4 10 -3 6 -8 10 -11 10 -2 0
-4 -4 -4 -10z"/>
<path d="M1553 2237 c4 -10 7 -23 7 -28 0 -5 5 -9 10 -9 15 0 12 20 -7 38 -16
16 -16 16 -10 -1z"/>
<path d="M1590 2237 c0 -9 4 -18 9 -21 5 -4 8 1 7 9 -3 21 -16 31 -16 12z"/>
<path d="M1395 2220 c-3 -5 -15 -10 -26 -10 -10 0 -19 -5 -19 -12 0 -6 3 -8 7
-5 3 4 11 2 18 -3 8 -7 15 -3 23 15 11 25 9 35 -3 15z"/>
<path d="M1170 2210 c0 -5 5 -10 10 -10 6 0 10 5 10 10 0 6 -4 10 -10 10 -5 0
-10 -4 -10 -10z"/>
<path d="M1231 2204 c0 -11 3 -14 6 -6 3 7 2 16 -1 19 -3 4 -6 -2 -5 -13z"/>
<path d="M1450 2190 c-8 -5 -10 -10 -5 -10 6 0 17 5 25 10 8 5 11 10 5 10 -5
0 -17 -5 -25 -10z"/>
<path d="M1494 2189 c-4 -8 -3 -9 4 -5 7 4 12 2 12 -3 0 -6 5 -11 11 -11 13 0
7 22 -8 27 -6 2 -15 -1 -19 -8z"/>
<path d="M1170 2175 c0 -8 2 -15 4 -15 2 0 6 7 10 15 3 8 1 15 -4 15 -6 0 -10
-7 -10 -15z"/>
<path d="M386 2168 c6 -10 105 -11 121 0 6 4 -19 8 -57 8 -38 1 -67 -3 -64 -8z"/>
<path d="M1356 2165 c4 -8 10 -15 16 -15 5 0 6 -4 3 -10 -3 -5 -2 -10 3 -10 5
0 12 9 15 21 4 15 2 19 -9 15 -8 -3 -14 -1 -14 4 0 6 -4 10 -10 10 -5 0 -7 -7
-4 -15z"/>
<path d="M835 2159 c-44 -5 -87 -12 -95 -15 -34 -12 18 -24 107 -24 81 0 94 2
102 19 8 15 7 20 -5 25 -9 3 -19 5 -22 5 -4 -1 -43 -6 -87 -10z"/>
<path d="M1140 2130 c0 -5 5 -10 11 -10 5 0 7 5 4 10 -3 6 -8 10 -11 10 -2 0
-4 -4 -4 -10z"/>
<path d="M1505 2114 c0 -12 3 -20 8 -17 13 8 7 -24 -7 -36 -11 -10 -15 -8 -19
6 -4 15 -5 14 -6 -4 0 -12 -6 -23 -13 -25 -7 -3 -5 -7 6 -11 9 -4 15 -3 11 2
-3 5 5 11 17 13 13 2 22 9 21 16 -2 6 2 12 9 12 6 0 8 3 5 7 -11 10 13 32 29
26 8 -3 14 0 14 5 0 6 -10 14 -22 18 -42 14 -53 11 -53 -12z m35 -4 c0 -5 -4
-10 -10 -10 -5 0 -10 5 -10 10 0 6 5 10 10 10 6 0 10 -4 10 -10z"/>
<path d="M4137 2105 c-18 -25 -18 -25 5 -25 13 0 29 4 37 9 12 8 12 12 2 25
-18 21 -23 20 -44 -9z m43 1 c0 -2 -7 -7 -16 -10 -8 -3 -12 -2 -9 4 6 10 25
14 25 6z"/>
<path d="M3928 2113 c7 -3 16 -2 19 1 4 3 -2 6 -13 5 -11 0 -14 -3 -6 -6z"/>
<path d="M1394 2008 c3 -15 26 -23 26 -8 0 6 -4 9 -9 6 -5 -4 -12 -1 -14 4 -3
6 -4 5 -3 -2z"/>
<path d="M1530 2010 c-9 -6 -10 -10 -3 -10 6 0 15 5 18 10 8 12 4 12 -15 0z"/>
<path d="M7040 2010 c25 -8 87 -13 79 -6 -2 2 -26 6 -54 9 -34 4 -42 3 -25 -3z"/>
<path d="M7148 2003 c6 -2 18 -2 25 0 6 3 1 5 -13 5 -14 0 -19 -2 -12 -5z"/>
<path d="M1557 1986 c-6 -15 1 -26 15 -26 11 0 10 27 -1 34 -5 3 -11 0 -14 -8z"/>
<path d="M1431 1974 c0 -11 3 -14 6 -6 3 7 2 16 -1 19 -3 4 -6 -2 -5 -13z"/>
<path d="M1542 1924 c-7 -8 -10 -19 -6 -25 4 -6 2 -14 -4 -18 -6 -3 -14 -19
-18 -35 -7 -29 -7 -29 16 -13 18 13 24 27 26 62 1 25 1 45 0 45 0 -1 -7 -7
-14 -16z"/>
<path d="M7893 1933 c-7 -2 -13 -9 -13 -15 0 -12 41 -6 41 7 1 12 -11 15 -28
8z"/>
<path d="M1460 1905 c0 -8 4 -15 10 -15 5 0 7 7 4 15 -4 8 -8 15 -10 15 -2 0
-4 -7 -4 -15z"/>
<path d="M7470 1910 c0 -13 11 -13 30 0 12 8 11 10 -7 10 -13 0 -23 -4 -23
-10z"/>
<path d="M8093 1873 c9 -2 23 -2 30 0 6 3 -1 5 -18 5 -16 0 -22 -2 -12 -5z"/>
<path d="M1606 1845 c4 -8 11 -15 16 -15 6 0 5 6 -2 15 -7 8 -14 15 -16 15 -2
0 -1 -7 2 -15z"/>
<path d="M7676 1852 c-2 -4 7 -9 20 -10 15 -1 22 2 19 8 -7 12 -32 13 -39 2z"/>
<path d="M7750 1840 c0 -13 18 -22 24 -11 3 5 -1 11 -9 15 -8 3 -15 1 -15 -4z"/>
<path d="M8060 1750 c-24 -8 -24 -8 5 -8 17 0 39 3 50 8 18 8 18 9 -5 8 -14 0
-36 -4 -50 -8z"/>
<path d="M5910 1661 c8 -5 51 -6 95 -1 l80 7 -95 1 c-58 1 -89 -2 -80 -7z"/>
<path d="M7133 1663 c9 -2 25 -2 35 0 9 3 1 5 -18 5 -19 0 -27 -2 -17 -5z"/>
<path d="M5858 1653 c7 -3 16 -2 19 1 4 3 -2 6 -13 5 -11 0 -14 -3 -6 -6z"/>
<path d="M5778 1643 c12 -2 32 -2 45 0 12 2 2 4 -23 4 -25 0 -35 -2 -22 -4z"/>
<path d="M1417 1633 c-11 -10 -8 -20 7 -26 8 -3 20 2 28 11 12 16 11 16 -6 2
-18 -14 -19 -13 -13 3 6 17 -3 23 -16 10z"/>
<path d="M6985 1500 c-27 -7 -28 -8 -5 -8 14 0 34 3 45 8 25 11 2 11 -40 0z"/>
<path d="M5953 1483 c9 -2 25 -2 35 0 9 3 1 5 -18 5 -19 0 -27 -2 -17 -5z"/>
<path d="M960 1420 c0 -11 2 -20 4 -20 2 0 6 9 9 20 3 11 1 20 -4 20 -5 0 -9
-9 -9 -20z"/>
<path d="M941 1404 c0 -11 3 -14 6 -6 3 7 2 16 -1 19 -3 4 -6 -2 -5 -13z"/>
<path d="M944 1369 c-3 -6 -2 -15 3 -20 5 -5 9 -1 9 11 0 23 -2 24 -12 9z"/>
<path d="M8105 1320 c-4 -6 7 -10 24 -10 17 0 31 5 31 10 0 6 -11 10 -24 10
-14 0 -28 -4 -31 -10z"/>
<path d="M936 1295 c-3 -8 -1 -15 4 -15 6 0 10 7 10 15 0 8 -2 15 -4 15 -2 0
-6 -7 -10 -15z"/>
<path d="M50 1270 c-53 -7 -52 -7 27 -8 46 -1 85 2 88 8 7 11 -26 11 -115 0z"/>
<path d="M7254 1271 c4 -6 37 -11 74 -12 37 0 91 -4 120 -8 29 -4 55 -4 58 0
5 9 -42 16 -170 25 -63 4 -86 3 -82 -5z"/>
<path d="M6660 1261 c-19 -3 -30 -9 -25 -13 6 -3 37 0 70 7 46 10 52 13 25 13
-19 -1 -51 -3 -70 -7z"/>
<path d="M270 1250 l-35 -7 37 -2 c20 0 40 4 43 9 7 11 7 11 -45 0z"/>
<path d="M880 1250 c0 -5 5 -10 10 -10 6 0 10 5 10 10 0 6 -4 10 -10 10 -5 0
-10 -4 -10 -10z"/>
<path d="M7540 1250 c-18 -6 -6 -8 43 -9 43 -1 66 3 62 9 -7 12 -69 12 -105 0z"/>
<path d="M6308 1223 c6 -2 18 -2 25 0 6 3 1 5 -13 5 -14 0 -19 -2 -12 -5z"/>
<path d="M6155 1200 c3 -5 12 -7 20 -3 21 7 19 13 -6 13 -11 0 -18 -4 -14 -10z"/>
<path d="M348 1113 c7 -3 16 -2 19 1 4 3 -2 6 -13 5 -11 0 -14 -3 -6 -6z"/>
<path d="M841 1107 c2 -1 11 -8 20 -15 14 -10 18 -10 23 3 4 11 -1 15 -21 15
-14 0 -24 -1 -22 -3z"/>
<path d="M828 1035 c2 -14 8 -28 13 -31 5 -3 9 -12 9 -20 0 -8 -4 -13 -9 -10
-5 3 -14 -1 -21 -9 -23 -27 14 -17 38 10 23 26 27 36 15 34 -22 -4 -33 3 -33
20 0 11 -4 22 -9 25 -4 3 -6 -6 -3 -19z"/>
<path d="M5431 1041 c-10 -7 -5 -11 18 -16 35 -8 91 2 91 16 0 11 -90 12 -109
0z"/>
<path d="M6480 1020 c-11 -7 -5 -10 23 -10 23 0 36 4 32 10 -8 13 -35 13 -55
0z"/>
<path d="M7038 1023 c18 -2 45 -2 60 0 15 2 0 4 -33 4 -33 0 -45 -2 -27 -4z"/>
<path d="M7885 983 c-47 -11 -36 -23 22 -23 45 0 62 4 67 15 4 12 -3 15 -32
14 -20 -1 -46 -3 -57 -6z"/>
<path d="M7994 959 c-5 -9 53 -17 82 -11 13 2 24 8 24 12 0 9 -100 8 -106 -1z"/>
<path d="M8193 958 c-2 -5 12 -8 31 -8 20 0 36 4 36 9 0 10 -60 9 -67 -1z"/>
<path d="M6980 934 c-14 -7 -37 -14 -52 -14 -15 0 -30 -4 -33 -10 -4 -6 5 -10
20 -10 22 0 25 -3 19 -25 l-6 -25 96 0 c53 0 96 4 96 8 0 5 6 9 13 9 6 0 41 4
77 8 36 4 94 10 130 13 l65 5 -65 12 c-36 7 -96 20 -135 29 -84 19 -191 19
-225 0z"/>
<path d="M828 933 c7 -3 16 -2 19 1 4 3 -2 6 -13 5 -11 0 -14 -3 -6 -6z"/>
<path d="M7776 923 c-3 -4 -52 -10 -109 -14 -70 -4 -127 -15 -182 -34 -65 -22
-92 -26 -142 -22 -35 2 -63 3 -63 0 0 -26 251 -60 334 -44 39 7 59 5 104 -11
32 -11 61 -26 65 -34 15 -26 107 -11 107 17 0 5 -15 15 -32 22 l-33 11 45 9
c64 12 105 12 185 -1 57 -9 73 -9 83 2 11 11 9 15 -13 20 -26 7 -26 8 -10 26
9 10 28 21 43 25 50 12 0 24 -83 19 -135 -8 -255 -34 -255 -55 0 -5 -12 -9
-27 -8 l-28 1 25 8 c22 6 23 8 8 15 -27 11 -22 23 13 30 23 5 28 9 18 16 -17
10 -43 12 -53 2z"/>
<path d="M830 906 c0 -10 8 -16 22 -16 12 0 19 1 17 3 -2 1 -12 9 -21 16 -15
12 -18 11 -18 -3z"/>
<path d="M858 913 c7 -3 16 -2 19 1 4 3 -2 6 -13 5 -11 0 -14 -3 -6 -6z"/>
<path d="M6675 900 c-4 -6 5 -10 20 -10 15 0 24 4 20 10 -3 6 -12 10 -20 10
-8 0 -17 -4 -20 -10z"/>
<path d="M6595 890 c-7 -11 9 -11 45 0 24 8 24 8 -7 9 -17 1 -35 -3 -38 -9z"/>
<path d="M801 874 c0 -11 3 -14 6 -6 3 7 2 16 -1 19 -3 4 -6 -2 -5 -13z"/>
<path d="M825 870 c-3 -5 -1 -10 4 -10 6 0 11 5 11 10 0 6 -2 10 -4 10 -3 0
-8 -4 -11 -10z"/>
<path d="M8172 863 c-13 -5 52 -43 75 -43 7 0 13 11 13 25 0 22 -4 25 -37 24
-21 0 -44 -3 -51 -6z"/>
<path d="M6812 830 c-18 -4 -42 -6 -52 -3 -10 3 -21 0 -24 -6 -5 -7 3 -11 21
-11 15 0 43 -4 61 -9 17 -5 56 -7 87 -4 l54 6 -23 18 c-25 20 -67 23 -124 9z"/>
<path d="M7000 805 c-10 -12 -10 -15 3 -15 19 0 31 16 18 24 -5 3 -14 -1 -21
-9z"/>
<path d="M5506 785 c-9 -14 -13 -25 -9 -24 25 4 43 -3 43 -16 0 -34 79 -36
155 -5 11 4 29 11 39 14 15 5 17 9 8 18 -9 9 -31 9 -94 0 -84 -12 -108 -7
-108 24 0 22 -16 16 -34 -11z"/>
<path d="M6196 795 c4 -8 18 -15 33 -14 14 0 20 3 13 6 -6 2 -10 9 -6 14 3 5
-6 9 -20 9 -18 0 -24 -4 -20 -15z"/>
<path d="M6386 803 c-12 -12 87 -73 118 -73 10 0 14 -5 11 -10 -4 -6 -14 -10
-23 -9 -42 4 -103 -2 -98 -9 6 -10 104 -35 137 -35 43 1 50 3 43 14 -4 8 3 9
26 4 33 -7 216 25 189 33 -8 3 -16 8 -19 12 -12 16 -248 69 -283 63 -19 -3
-49 -1 -66 5 -16 6 -32 8 -35 5z"/>
<path d="M8162 774 c-39 -6 -81 -10 -92 -7 -27 7 -70 -5 -70 -20 0 -26 57 -38
152 -33 51 3 96 6 101 6 12 0 8 58 -5 62 -7 3 -46 -1 -86 -8z"/>
<path d="M435 768 c-16 -5 -40 -9 -53 -9 -32 1 -39 -26 -13 -52 l22 -22 -3 24
c-2 14 3 26 12 28 13 4 13 3 0 -6 -13 -9 -13 -11 1 -11 9 0 19 -6 22 -14 9
-23 42 -12 39 13 -4 26 12 28 30 3 29 -41 86 -32 72 10 -5 17 -2 19 18 13 l23
-6 -24 20 c-26 23 -93 27 -146 9z"/>
<path d="M7472 743 c6 -7 23 -13 39 -13 16 0 38 -9 50 -21 17 -17 36 -22 83
-24 47 -2 62 -6 64 -19 4 -20 62 -25 172 -13 25 3 56 6 69 6 23 1 24 2 6 21
-23 25 -36 25 -76 1 -28 -17 -35 -18 -53 -6 -12 7 -42 17 -68 20 -37 6 -48 12
-48 25 0 28 -47 40 -152 37 -76 -2 -94 -5 -86 -14z"/>
<path d="M7058 741 c-55 -8 -72 -19 -40 -28 12 -3 22 -12 22 -19 0 -9 11 -14
29 -14 15 0 40 -10 55 -21 21 -17 36 -20 64 -15 20 3 42 12 48 21 6 8 18 15
27 15 22 0 31 18 17 35 -17 21 -147 36 -222 26z"/>
<path d="M265 710 c3 -24 -2 -33 -23 -45 l-27 -14 28 -1 c25 0 37 -13 20 -23
-5 -2 -2 -2 5 0 7 1 10 -2 7 -7 -8 -13 -65 -13 -65 -1 0 5 -8 11 -17 13 -15 3
-12 9 15 35 29 26 31 31 16 37 -37 14 -76 -54 -44 -77 19 -13 19 -14 1 -27
-11 -7 -22 -12 -25 -11 -4 1 -17 -11 -30 -26 -18 -21 -27 -25 -37 -17 -8 6
-31 9 -51 7 l-38 -5 0 -274 0 -274 333 0 334 0 2 87 c1 48 6 92 11 97 7 7 10
3 10 -9 1 -17 2 -18 13 -5 15 19 58 14 50 -6 -3 -8 0 -21 7 -29 12 -15 4 -21
-23 -16 -4 1 -15 -5 -23 -14 -9 -9 -11 -15 -4 -15 7 0 5 -6 -4 -16 -19 -18
-21 -34 -4 -34 6 0 3 -7 -8 -16 -10 -8 -14 -13 -7 -10 6 4 14 0 16 -6 4 -10 7
-10 15 0 12 17 23 17 33 1 11 -18 16 -11 24 40 6 34 4 42 -6 39 -8 -3 -13 -13
-13 -22 1 -9 -2 -16 -7 -16 -5 0 -9 6 -9 13 0 9 -3 8 -9 -2 -5 -7 -11 -9 -14
-4 -3 5 9 17 28 27 42 23 49 40 35 82 -9 27 -8 40 3 63 12 24 12 29 1 24 -15
-5 -36 35 -26 51 3 5 9 1 13 -10 6 -16 9 -14 23 18 9 21 16 44 16 53 0 21 -26
19 -42 -4 -7 -10 -22 -20 -33 -22 -12 -3 -20 -12 -20 -24 1 -11 -4 -24 -10
-28 -6 -4 -2 -7 10 -5 31 5 32 -30 1 -38 -14 -3 -26 -11 -26 -18 0 -6 -4 -5
-9 3 -6 9 -6 22 0 33 6 10 7 23 4 28 -3 5 -1 11 4 14 4 3 5 24 1 46 -4 22 -5
40 -1 40 7 0 12 58 6 85 -4 18 -11 20 -57 16 -61 -4 -240 16 -295 32 -74 23
-99 55 -64 83 8 6 12 18 8 27 -3 9 -1 17 5 19 7 3 6 17 -3 46 -14 48 -30 56
-24 12z m-15 -130 c0 -5 -4 -10 -10 -10 -5 0 -10 5 -10 10 0 6 5 10 10 10 6 0
10 -4 10 -10z m-35 -20 c8 -13 -40 -31 -60 -24 -12 5 -13 9 -4 20 13 16 55 19
64 4z m380 -130 c-3 -5 -12 -7 -20 -3 -21 7 -19 13 6 13 11 0 18 -4 14 -10z"/>
<path d="M6821 723 c-12 -13 -11 -14 10 -8 33 10 48 25 24 25 -11 -1 -26 -8
-34 -17z"/>
<path d="M327 709 c6 -6 9 -18 6 -25 -3 -9 2 -14 16 -14 27 0 27 8 -1 31 -23
20 -39 26 -21 8z"/>
<path d="M597 700 c-3 -11 -2 -20 3 -20 4 0 10 9 13 20 3 11 2 20 -3 20 -4 0
-10 -9 -13 -20z"/>
<path d="M7410 710 c24 -13 97 -24 85 -12 -5 5 -30 12 -55 15 -27 3 -39 2 -30
-3z"/>
<path d="M8198 653 c7 -3 16 -2 19 1 4 3 -2 6 -13 5 -11 0 -14 -3 -6 -6z"/>
<path d="M6268 637 c-16 -6 -28 -14 -28 -19 0 -4 -6 -8 -14 -8 -8 0 -17 -4
-20 -9 -3 -5 5 -8 18 -7 13 0 22 4 19 9 -2 4 1 7 6 7 6 0 11 -4 11 -10 0 -16
37 -12 55 6 12 12 13 19 4 30 -13 16 -14 16 -51 1z"/>
<path d="M7340 640 c0 -10 69 -60 83 -60 5 0 24 -7 42 -16 19 -9 51 -14 76
-12 l44 4 -39 18 c-21 9 -45 24 -53 32 -8 8 -26 16 -41 19 -15 3 -43 10 -63
15 -45 12 -49 12 -49 0z"/>
<path d="M7958 643 c6 -2 18 -2 25 0 6 3 1 5 -13 5 -14 0 -19 -2 -12 -5z"/>
<path d="M6900 616 c-38 -8 -56 -17 -58 -29 -5 -26 51 -22 115 8 29 14 53 28
53 30 0 8 -50 3 -110 -9z"/>
<path d="M8229 582 c-1 -4 -1 -10 -1 -13 1 -4 -10 -10 -23 -13 -33 -8 -31 -17
8 -41 47 -29 47 -29 47 -2 0 14 -6 28 -12 31 -10 5 -10 7 0 12 6 3 12 9 12 14
0 10 -30 22 -31 12z"/>
<path d="M6688 573 c7 -3 16 -2 19 1 4 3 -2 6 -13 5 -11 0 -14 -3 -6 -6z"/>
<path d="M7803 565 c-20 -22 -16 -30 27 -60 22 -15 40 -33 40 -40 0 -15 22
-25 53 -25 12 0 34 -6 48 -14 33 -17 96 -29 110 -21 6 4 -2 20 -18 40 -15 19
-38 48 -51 64 -45 59 -176 94 -209 56z m37 -15 c0 -5 -2 -10 -4 -10 -3 0 -8 5
-11 10 -3 6 -1 10 4 10 6 0 11 -4 11 -10z"/>
<path d="M750 555 c-7 -8 -9 -15 -4 -15 5 0 2 -4 -5 -9 -12 -8 -10 -12 12 -22
28 -13 27 -29 -3 -29 -10 0 -21 -7 -24 -16 -9 -22 -8 -24 9 -18 8 4 15 1 15
-5 0 -6 -7 -11 -15 -11 -8 0 -15 -3 -16 -7 0 -5 -2 -18 -5 -31 -3 -16 0 -21 8
-16 8 5 9 2 5 -9 -4 -11 -1 -17 8 -17 8 0 15 8 15 18 0 11 8 17 26 18 33 2 38
8 39 49 1 24 -2 32 -12 28 -7 -3 -13 -1 -13 5 0 6 5 12 11 14 6 2 13 24 16 48
l5 44 -26 -17 c-24 -16 -30 -15 -27 6 2 11 -5 8 -19 -8z m60 -21 c0 -8 -5 -12
-10 -9 -6 4 -8 11 -5 16 9 14 15 11 15 -7z m-10 -101 c0 -11 -3 -14 -8 -7 -4
6 -14 14 -22 17 -10 4 -8 6 8 6 15 1 22 -5 22 -16z m-40 -26 c-14 -8 -27 -12
-30 -10 -7 6 23 23 40 23 8 0 4 -6 -10 -13z"/>
<path d="M8060 510 c34 -33 66 -60 71 -60 6 0 29 -9 51 -20 45 -22 78 -26 78
-10 0 6 -9 10 -20 10 -11 0 -20 6 -21 13 -1 20 -99 89 -143 100 -23 5 -45 14
-50 18 -6 5 -14 9 -19 9 -5 0 19 -27 53 -60z"/>
<path d="M6103 538 c-31 -15 -29 -22 10 -35 52 -19 105 -26 142 -19 56 11 43
32 -27 45 -35 7 -72 14 -83 16 -11 2 -30 -1 -42 -7z"/>
<path d="M7600 530 c0 -9 -5 -21 -12 -28 -9 -9 0 -12 43 -12 41 0 50 -3 39
-11 -11 -8 -12 -12 -2 -16 6 -2 12 -12 12 -21 0 -12 3 -13 12 -4 7 7 25 12 40
12 15 0 28 5 28 10 0 6 -10 10 -21 10 -16 0 -20 5 -16 20 3 13 0 20 -9 20 -8
0 -23 9 -34 20 -23 23 -80 23 -80 0z"/>
<path d="M6930 501 c-19 -5 -26 -9 -16 -10 11 0 27 -8 37 -17 17 -16 96 -31
204 -40 33 -3 64 -9 69 -14 12 -12 18 -12 -139 -15 -150 -2 -295 -15 -295 -25
0 -9 112 -40 145 -40 16 0 25 6 25 15 0 17 7 18 172 16 65 0 120 4 123 9 3 5
28 12 54 16 27 3 54 10 61 14 31 19 -35 55 -120 64 -30 4 -82 11 -115 16 -98
15 -168 19 -205 11z"/>
<path d="M6730 495 c0 -10 60 -35 84 -35 37 0 40 17 4 29 -31 11 -88 15 -88 6z"/>
<path d="M7527 453 c-7 -11 60 -49 70 -40 3 4 12 2 19 -4 15 -13 48 -4 40 10
-4 5 0 11 6 14 23 8 4 15 -63 22 -38 4 -69 3 -72 -2z"/>
<path d="M7405 410 c3 -5 8 -10 11 -10 2 0 4 5 4 10 0 6 -5 10 -11 10 -5 0 -7
-4 -4 -10z"/>
<path d="M7764 385 c11 -8 25 -15 32 -15 7 0 21 -3 31 -6 10 -3 5 3 -12 15
-16 11 -39 21 -50 21 -20 -1 -20 -1 -1 -15z"/>
<path d="M8030 350 c20 -13 43 -13 35 0 -3 6 -16 10 -28 10 -18 0 -19 -2 -7
-10z"/>
<path d="M7410 347 c0 -14 41 -47 66 -53 16 -4 38 -13 49 -20 11 -7 52 -15 90
-18 39 -3 63 -3 55 0 -8 3 -40 13 -70 22 -30 9 -78 29 -107 44 -44 24 -83 36
-83 25z"/>
<path d="M7860 330 c0 -5 7 -10 16 -10 8 0 12 5 9 10 -3 6 -10 10 -16 10 -5 0
-9 -4 -9 -10z"/>
<path d="M6988 303 c7 -3 16 -2 19 1 4 3 -2 6 -13 5 -11 0 -14 -3 -6 -6z"/>
<path d="M7714 292 c7 -11 68 -32 96 -32 13 0 13 2 0 15 -19 18 -106 34 -96
17z"/>
<path d="M8205 285 c11 -8 25 -19 32 -25 17 -15 23 -13 23 9 0 18 -26 31 -60
31 -11 -1 -10 -4 5 -15z"/>
<path d="M5418 283 c7 -3 16 -2 19 1 4 3 -2 6 -13 5 -11 0 -14 -3 -6 -6z"/>
<path d="M7260 269 c0 -9 -24 -10 -85 -5 -88 7 -109 -1 -52 -22 43 -16 205
-14 236 2 l24 13 -33 12 c-42 14 -90 14 -90 0z"/>
<path d="M8050 263 c-22 -5 -19 -7 24 -24 27 -11 51 -17 55 -13 6 6 -37 45
-48 43 -3 -1 -17 -4 -31 -6z"/>
<path d="M7905 250 c3 -5 17 -10 31 -10 14 0 22 4 19 10 -3 6 -17 10 -31 10
-14 0 -22 -4 -19 -10z"/>
<path d="M8160 240 c0 -5 7 -10 16 -10 8 0 12 5 9 10 -3 6 -10 10 -16 10 -5 0
-9 -4 -9 -10z"/>
<path d="M7696 227 c11 -8 38 -18 60 -22 37 -6 38 -5 20 9 -11 9 -27 16 -35
16 -9 0 -27 3 -41 6 -24 6 -25 6 -4 -9z"/>
<path d="M790 215 c0 -8 2 -15 4 -15 2 0 6 7 10 15 3 8 1 15 -4 15 -6 0 -10
-7 -10 -15z"/>
<path d="M7384 222 c4 -7 0 -15 -10 -19 -16 -6 -16 -7 2 -13 24 -8 104 -1 104
10 0 4 -15 10 -32 12 -18 3 -42 9 -52 13 -14 6 -17 5 -12 -3z"/>
<path d="M8000 212 c0 -5 18 -14 41 -21 41 -12 61 -9 43 8 -13 13 -84 23 -84
13z"/>
<path d="M7945 190 c3 -5 10 -10 16 -10 5 0 9 5 9 10 0 6 -7 10 -16 10 -8 0
-12 -4 -9 -10z"/>
<path d="M8245 170 c-3 -5 -1 -10 4 -10 6 0 11 5 11 10 0 6 -2 10 -4 10 -3 0
-8 -4 -11 -10z"/>
<path d="M697 130 c3 -11 7 -20 9 -20 2 0 4 9 4 20 0 11 -4 20 -9 20 -5 0 -7
-9 -4 -20z"/>
<path d="M7411 127 c31 -12 62 -27 70 -34 21 -17 159 -28 200 -15 21 7 50 8
77 3 23 -5 42 -5 42 0 0 16 -39 29 -85 29 -28 0 -52 6 -61 15 -22 21 -100 20
-112 -2 -9 -15 -12 -14 -37 5 -22 17 -41 22 -89 21 l-61 0 56 -22z m182 -34
c-7 -2 -19 -2 -25 0 -7 3 -2 5 12 5 14 0 19 -2 13 -5z"/>
<path d="M6180 128 c-47 -4 -107 -5 -135 -2 -44 4 -48 3 -32 -9 30 -24 19 -28
-60 -23 l-78 5 25 -21 25 -21 -40 7 c-22 5 -44 11 -50 16 -31 25 -212 21 -238
-4 -7 -7 -20 -15 -30 -19 -18 -7 -19 -23 -2 -43 7 -9 12 -9 17 0 6 8 8 8 8 -1
0 -10 48 -13 208 -13 184 1 205 2 188 15 -11 8 -28 15 -37 15 -10 0 -21 5 -25
11 -5 9 14 10 70 7 51 -3 76 -1 76 6 0 7 4 6 8 -2 6 -8 42 -15 97 -19 73 -5
90 -3 99 9 9 12 39 16 136 19 119 4 125 3 128 -16 4 -28 49 -46 110 -43 43 2
58 8 79 30 19 19 37 28 59 28 40 0 52 15 23 30 -24 13 -109 7 -237 -16 -27 -5
-37 -1 -64 25 -26 26 -40 31 -82 32 -28 1 -76 2 -106 3 -30 1 -93 -1 -140 -6z
m-143 -64 c-3 -3 -12 -4 -19 -1 -8 3 -5 6 6 6 11 1 17 -2 13 -5z"/>
<path d="M7870 83 c0 -9 57 -33 79 -33 8 0 6 6 -5 17 -18 19 -74 30 -74 16z"/>
<path d="M6864 68 c-8 -13 15 -28 44 -28 14 0 22 5 20 12 -6 16 -56 29 -64 16z"/>
<path d="M8110 36 c0 -9 -4 -16 -10 -16 -5 0 -10 -4 -10 -10 0 -13 147 -13
155 0 8 12 -25 25 -87 34 -40 6 -48 5 -48 -8z"/>
<path d="M7718 33 c7 -3 16 -2 19 1 4 3 -2 6 -13 5 -11 0 -14 -3 -6 -6z"/>
<path d="M7753 14 c0 -9 11 -14 31 -14 29 1 29 2 11 12 -29 17 -42 18 -42 2z"/>
</g>
</svg>
